<svg width="28" height="27" viewBox="0 0 28 27" fill="none" xmlns="http://www.w3.org/2000/svg">
<ellipse cx="14" cy="13.3043" rx="13.6211" ry="13.3043" fill="#393939"/>
<path d="M10.9039 11.5698H8.78583V18.3243H10.9039V11.5698Z" fill="white"/>
<path d="M16.6335 11.4233C16.5554 11.4135 16.4725 11.4087 16.3895 11.4038C15.2035 11.355 14.5349 12.0578 14.3007 12.3603C14.2372 12.4433 14.2079 12.4921 14.2079 12.4921V11.5892H12.1826V18.3437H14.2079H14.3007C14.3007 17.6556 14.3007 16.9723 14.3007 16.2842C14.3007 15.9133 14.3007 15.5424 14.3007 15.1714C14.3007 14.7127 14.2665 14.2247 14.4959 13.8049C14.6911 13.4535 15.0425 13.2779 15.4378 13.2779C16.6091 13.2779 16.6335 14.3369 16.6335 14.4345C16.6335 14.4394 16.6335 14.4443 16.6335 14.4443V18.373H18.7516V13.966C18.7516 12.4579 17.9854 11.5697 16.6335 11.4233Z" fill="white"/>
<path d="M9.84479 10.696C10.524 10.696 11.0747 10.1454 11.0747 9.46619C11.0747 8.78695 10.524 8.23633 9.84479 8.23633C9.16556 8.23633 8.61493 8.78695 8.61493 9.46619C8.61493 10.1454 9.16556 10.696 9.84479 10.696Z" fill="white"/>
</svg>
