<svg width="28" height="27" viewBox="0 0 28 27" fill="none" xmlns="http://www.w3.org/2000/svg">
<ellipse cx="13.6211" cy="13.3043" rx="13.6211" ry="13.3043" fill="#393939"/>
<path d="M15.0466 10.2953C15.0466 10.1693 15.0966 10.0485 15.1857 9.95935C15.2749 9.87024 15.3957 9.82018 15.5217 9.82018H19.323C19.449 9.82018 19.5698 9.87024 19.659 9.95935C19.7481 10.0485 19.7981 10.1693 19.7981 10.2953C19.7981 10.4214 19.7481 10.5422 19.659 10.6313C19.5698 10.7204 19.449 10.7705 19.323 10.7705H15.5217C15.3957 10.7705 15.2749 10.7204 15.1857 10.6313C15.0966 10.5422 15.0466 10.4214 15.0466 10.2953ZM13.6211 14.9281C13.6211 15.5897 13.3583 16.2242 12.8905 16.692C12.4226 17.1598 11.7881 17.4227 11.1265 17.4227H7.44409C7.31807 17.4227 7.19721 17.3726 7.1081 17.2835C7.01899 17.1944 6.96893 17.0735 6.96893 16.9475V9.34503C6.96893 9.21901 7.01899 9.09815 7.1081 9.00904C7.19721 8.91993 7.31807 8.86987 7.44409 8.86987H10.889C11.3434 8.87036 11.7871 9.00802 12.1621 9.26484C12.537 9.52167 12.8256 9.8857 12.9903 10.3093C13.1549 10.7329 13.1878 11.1963 13.0847 11.6389C12.9816 12.0815 12.7473 12.4827 12.4124 12.7899C12.7812 13.0118 13.0864 13.3253 13.2982 13.6999C13.51 14.0746 13.6212 14.4977 13.6211 14.9281ZM7.91924 12.4335H10.889C11.2355 12.4335 11.5679 12.2959 11.8129 12.0508C12.058 11.8058 12.1956 11.4734 12.1956 11.1269C12.1956 10.7803 12.058 10.4479 11.8129 10.2029C11.5679 9.95785 11.2355 9.82018 10.889 9.82018H7.91924V12.4335ZM12.6708 14.9281C12.6708 14.7253 12.6309 14.5245 12.5532 14.3371C12.4756 14.1498 12.3619 13.9795 12.2185 13.8361C12.0751 13.6928 11.9049 13.579 11.7175 13.5014C11.5301 13.4238 11.3293 13.3838 11.1265 13.3838H7.91924V16.4724H11.1265C11.3293 16.4724 11.5301 16.4324 11.7175 16.3548C11.9049 16.2772 12.0751 16.1635 12.2185 16.0201C12.3619 15.8767 12.4756 15.7064 12.5532 15.5191C12.6309 15.3317 12.6708 15.1309 12.6708 14.9281ZM20.2733 14.5717C20.2733 14.6978 20.2232 14.8186 20.1341 14.9077C20.045 14.9968 19.9241 15.0469 19.7981 15.0469H15.5811C15.6706 15.3936 15.8561 15.708 16.1165 15.9539C16.3768 16.1997 16.7012 16.367 17.0525 16.4366C17.4037 16.5061 17.7675 16.475 18.1018 16.3468C18.4361 16.2186 18.7275 15.9986 18.9423 15.7121C18.9797 15.6622 19.0267 15.6201 19.0804 15.5884C19.1341 15.5566 19.1936 15.5357 19.2554 15.5269C19.3172 15.5181 19.3801 15.5216 19.4406 15.5371C19.501 15.5526 19.5578 15.5799 19.6078 15.6174C19.6577 15.6549 19.6997 15.7018 19.7315 15.7555C19.7633 15.8093 19.7842 15.8687 19.793 15.9305C19.8018 15.9923 19.7983 16.0552 19.7828 16.1157C19.7673 16.1762 19.74 16.233 19.7025 16.2829C19.2962 16.8243 18.7104 17.2034 18.0501 17.3525C17.3898 17.5016 16.698 17.4108 16.0985 17.0965C15.499 16.7821 15.0309 16.2647 14.7779 15.6369C14.525 15.009 14.5037 14.3116 14.7179 13.6694C14.9321 13.0273 15.3678 12.4823 15.947 12.132C16.5263 11.7817 17.2112 11.649 17.8794 11.7575C18.5476 11.866 19.1553 12.2087 19.5939 12.7244C20.0325 13.24 20.2733 13.8948 20.2733 14.5717ZM19.2636 14.0966C19.1589 13.6878 18.9211 13.3254 18.5878 13.0666C18.2544 12.8078 17.8444 12.6674 17.4223 12.6674C17.0003 12.6674 16.5903 12.8078 16.2569 13.0666C15.9236 13.3254 15.6858 13.6878 15.5811 14.0966H19.2636Z" fill="white"/>
</svg>
