<svg xmlns="http://www.w3.org/2000/svg" xmlns:xlink="http://www.w3.org/1999/xlink" width="500" zoomAndPan="magnify" viewBox="0 0 375 374.999991" height="500" preserveAspectRatio="xMidYMid meet" version="1.0"><defs><g/><clipPath id="d390b76ad2"><path d="M 4.324219 4.324219 L 370.675781 4.324219 L 370.675781 370.675781 L 4.324219 370.675781 Z M 4.324219 4.324219 " clip-rule="nonzero"/></clipPath><clipPath id="713f13b1ce"><path d="M 187.5 4.324219 C 86.335938 4.324219 4.324219 86.335938 4.324219 187.5 C 4.324219 288.664062 86.335938 370.675781 187.5 370.675781 C 288.664062 370.675781 370.675781 288.664062 370.675781 187.5 C 370.675781 86.335938 288.664062 4.324219 187.5 4.324219 Z M 187.5 4.324219 " clip-rule="nonzero"/></clipPath><clipPath id="b580b74de4"><path d="M 4.324219 4.324219 L 370.324219 4.324219 L 370.324219 370.324219 L 4.324219 370.324219 Z M 4.324219 4.324219 " clip-rule="nonzero"/></clipPath><clipPath id="c36e0a0342"><path d="M 187.496094 4.324219 C 86.332031 4.324219 4.324219 86.332031 4.324219 187.496094 C 4.324219 288.65625 86.332031 370.664062 187.496094 370.664062 C 288.65625 370.664062 370.664062 288.65625 370.664062 187.496094 C 370.664062 86.332031 288.65625 4.324219 187.496094 4.324219 Z M 187.496094 4.324219 " clip-rule="nonzero"/></clipPath><clipPath id="9b2c42e452"><path d="M 18.660156 18.660156 L 356.339844 18.660156 L 356.339844 356.339844 L 18.660156 356.339844 Z M 18.660156 18.660156 " clip-rule="nonzero"/></clipPath><clipPath id="c63dea09aa"><path d="M 187.5 18.660156 C 94.253906 18.660156 18.660156 94.253906 18.660156 187.5 C 18.660156 280.746094 94.253906 356.339844 187.5 356.339844 C 280.746094 356.339844 356.339844 280.746094 356.339844 187.5 C 356.339844 94.253906 280.746094 18.660156 187.5 18.660156 Z M 187.5 18.660156 " clip-rule="nonzero"/></clipPath><clipPath id="1e6ce04aba"><path d="M 18.660156 18.660156 L 356.160156 18.660156 L 356.160156 356.160156 L 18.660156 356.160156 Z M 18.660156 18.660156 " clip-rule="nonzero"/></clipPath><clipPath id="2237ce80a5"><path d="M 187.5 18.660156 C 94.253906 18.660156 18.660156 94.253906 18.660156 187.5 C 18.660156 280.746094 94.253906 356.335938 187.5 356.335938 C 280.746094 356.335938 356.335938 280.746094 356.335938 187.5 C 356.335938 94.253906 280.746094 18.660156 187.5 18.660156 Z M 187.5 18.660156 " clip-rule="nonzero"/></clipPath><clipPath id="90c9294d3a"><path d="M 81.140625 190 L 181 190 L 181 277 L 81.140625 277 Z M 81.140625 190 " clip-rule="nonzero"/></clipPath><clipPath id="04f27c9ede"><path d="M 81.140625 97 L 132 97 L 132 212 L 81.140625 212 Z M 81.140625 97 " clip-rule="nonzero"/></clipPath><clipPath id="7dd11ce57d"><path d="M 138 81.140625 L 238 81.140625 L 238 151 L 138 151 Z M 138 81.140625 " clip-rule="nonzero"/></clipPath><clipPath id="713edc89bb"><path d="M 31.289062 176.316406 L 54.792969 176.316406 L 54.792969 198.683594 L 31.289062 198.683594 Z M 31.289062 176.316406 " clip-rule="nonzero"/></clipPath><clipPath id="c677582265"><path d="M 43.023438 176.316406 L 45.792969 184.859375 L 54.757812 184.859375 L 47.503906 190.140625 L 50.273438 198.683594 L 43.023438 193.402344 L 35.769531 198.683594 L 38.539062 190.140625 L 31.289062 184.859375 L 40.253906 184.859375 Z M 43.023438 176.316406 " clip-rule="nonzero"/></clipPath><clipPath id="bec3b81843"><path d="M 320.738281 176.316406 L 344.246094 176.316406 L 344.246094 198.683594 L 320.738281 198.683594 Z M 320.738281 176.316406 " clip-rule="nonzero"/></clipPath><clipPath id="f730d241b0"><path d="M 332.476562 176.316406 L 335.246094 184.859375 L 344.210938 184.859375 L 336.957031 190.140625 L 339.726562 198.683594 L 332.476562 193.402344 L 325.222656 198.683594 L 327.992188 190.140625 L 320.738281 184.859375 L 329.703125 184.859375 Z M 332.476562 176.316406 " clip-rule="nonzero"/></clipPath></defs><g clip-path="url(#d390b76ad2)"><g clip-path="url(#713f13b1ce)"><path fill="#000000" d="M 4.324219 4.324219 L 370.675781 4.324219 L 370.675781 370.675781 L 4.324219 370.675781 Z M 4.324219 4.324219 " fill-opacity="1" fill-rule="nonzero"/></g></g><g clip-path="url(#b580b74de4)"><g clip-path="url(#c36e0a0342)"><path stroke-linecap="butt" transform="matrix(0.75, 0, 0, 0.75, 4.325481, 4.325477)" fill="none" stroke-linejoin="miter" d="M 244.2275 -0.00167702 C 109.342074 -0.00167702 -0.00168302 109.34208 -0.00168302 244.227506 C -0.00168302 379.107723 109.342074 488.45148 244.2275 488.45148 C 379.107717 488.45148 488.451474 379.107723 488.451474 244.227506 C 488.451474 109.34208 379.107717 -0.00167702 244.2275 -0.00167702 Z M 244.2275 -0.00167702 " stroke="#000000" stroke-width="6" stroke-opacity="1" stroke-miterlimit="4"/></g></g><g clip-path="url(#9b2c42e452)"><g clip-path="url(#c63dea09aa)"><path fill="#000000" d="M 18.660156 18.660156 L 356.339844 18.660156 L 356.339844 356.339844 L 18.660156 356.339844 Z M 18.660156 18.660156 " fill-opacity="1" fill-rule="nonzero"/></g></g><g clip-path="url(#1e6ce04aba)"><g clip-path="url(#2237ce80a5)"><path stroke-linecap="butt" transform="matrix(0.75, 0, 0, 0.75, 18.661801, 18.661797)" fill="none" stroke-linejoin="miter" d="M 225.117613 -0.00218747 C 100.78948 -0.00218747 -0.00219347 100.789486 -0.00219347 225.117619 C -0.00219347 349.445752 100.78948 450.232217 225.117613 450.232217 C 349.445746 450.232217 450.232211 349.445752 450.232211 225.117619 C 450.232211 100.789486 349.445746 -0.00218747 225.117613 -0.00218747 Z M 225.117613 -0.00218747 " stroke="#ffffff" stroke-width="2" stroke-opacity="1" stroke-miterlimit="4"/></g></g><path fill="#ffffff" d="M 243.570312 163.710938 L 243.570312 277.890625 C 272.378906 259.980469 292.007812 228.65625 293.71875 192.660156 L 243.570312 163.710938 " fill-opacity="1" fill-rule="nonzero"/><path fill="#ffffff" d="M 236.144531 224.152344 L 187.507812 252.230469 L 187.492188 252.230469 L 137.238281 281.246094 C 152.21875 289.289062 169.328125 293.859375 187.507812 293.859375 C 205.039062 293.859375 221.566406 289.597656 236.144531 282.085938 L 236.144531 224.152344 " fill-opacity="1" fill-rule="nonzero"/><g clip-path="url(#90c9294d3a)"><path fill="#ffffff" d="M 180.054688 247.933594 L 131.445312 219.875 L 81.191406 190.875 C 82.3125 226.96875 101.457031 258.542969 129.90625 276.898438 L 180.054688 247.933594 " fill-opacity="1" fill-rule="nonzero"/></g><g clip-path="url(#04f27c9ede)"><path fill="#ffffff" d="M 131.445312 211.289062 L 131.445312 97.109375 C 102.605469 115.007812 83 146.335938 81.273438 182.339844 L 131.445312 211.289062 " fill-opacity="1" fill-rule="nonzero"/></g><g clip-path="url(#7dd11ce57d)"><path fill="#ffffff" d="M 187.507812 81.140625 C 169.976562 81.140625 153.464844 85.386719 138.882812 92.90625 L 138.882812 150.832031 L 187.507812 122.753906 L 237.761719 93.753906 C 222.796875 85.710938 205.6875 81.140625 187.507812 81.140625 " fill-opacity="1" fill-rule="nonzero"/></g><path fill="#ffffff" d="M 245.101562 98.101562 L 194.945312 127.050781 L 243.570312 155.125 L 293.808594 184.125 C 292.6875 148.03125 273.558594 116.445312 245.101562 98.101562 " fill-opacity="1" fill-rule="nonzero"/><g clip-path="url(#713edc89bb)"><g clip-path="url(#c677582265)"><path fill="#ffffff" d="M 31.289062 176.316406 L 54.792969 176.316406 L 54.792969 198.683594 L 31.289062 198.683594 Z M 31.289062 176.316406 " fill-opacity="1" fill-rule="nonzero"/></g></g><g fill="#ffffff" fill-opacity="1"><g transform="translate(44.286406, 219.885579)"><g><path d="M 18.8125 14.9375 C 18.789062 14.945312 18.773438 14.945312 18.765625 14.9375 C 18.753906 14.9375 18.75 14.9375 18.75 14.9375 C 18.507812 14.882812 18.289062 14.832031 18.09375 14.78125 C 18 14.726562 17.890625 14.6875 17.765625 14.65625 C 17.648438 14.625 17.53125 14.570312 17.40625 14.5 C 17.382812 14.488281 17.363281 14.476562 17.34375 14.46875 C 17.332031 14.46875 17.320312 14.457031 17.3125 14.4375 C 17.195312 14.382812 17.09375 14.316406 17 14.234375 C 16.90625 14.160156 16.800781 14.085938 16.6875 14.015625 L 16.359375 13.0625 C 15.878906 12.644531 15.4375 12.109375 15.03125 11.453125 L 15.34375 12.359375 C 15.15625 11.972656 14.976562 11.539062 14.8125 11.0625 L 11.453125 0.984375 L 4.015625 3.4375 L 2.546875 3.921875 L 2.4375 3.96875 C 1.976562 4.113281 1.65625 4.101562 1.46875 3.9375 C 1.28125 3.769531 1.164062 3.625 1.125 3.5 L 0.453125 1.484375 C 0.410156 1.367188 0.410156 1.175781 0.453125 0.90625 C 0.503906 0.644531 0.757812 0.441406 1.21875 0.296875 L 1.328125 0.25 L 1.09375 -0.46875 L 2.5625 -0.953125 L 2.6875 -0.59375 L 4.8125 -1.296875 L 5.078125 -0.46875 L 10.5 -2.265625 L 10.109375 -3.453125 L 10.828125 -3.6875 L 13.359375 -4.515625 C 13.398438 -4.535156 13.445312 -4.546875 13.5 -4.546875 C 13.550781 -4.554688 13.59375 -4.566406 13.625 -4.578125 C 13.664062 -4.585938 13.6875 -4.582031 13.6875 -4.5625 C 13.75 -4.582031 13.832031 -4.582031 13.9375 -4.5625 C 13.945312 -4.570312 13.953125 -4.578125 13.953125 -4.578125 C 13.992188 -4.566406 14.023438 -4.5625 14.046875 -4.5625 C 14.078125 -4.5625 14.109375 -4.550781 14.140625 -4.53125 C 14.140625 -4.53125 14.144531 -4.53125 14.15625 -4.53125 C 14.164062 -4.53125 14.171875 -4.53125 14.171875 -4.53125 C 14.203125 -4.507812 14.222656 -4.492188 14.234375 -4.484375 C 14.242188 -4.484375 14.265625 -4.476562 14.296875 -4.46875 C 14.316406 -4.445312 14.328125 -4.4375 14.328125 -4.4375 C 14.328125 -4.4375 14.335938 -4.429688 14.359375 -4.421875 C 14.367188 -4.398438 14.378906 -4.390625 14.390625 -4.390625 C 14.398438 -4.398438 14.410156 -4.394531 14.421875 -4.375 C 14.421875 -4.351562 14.425781 -4.335938 14.4375 -4.328125 C 14.457031 -4.316406 14.46875 -4.304688 14.46875 -4.296875 L 15.09375 -2.40625 C 15.15625 -2.351562 15.195312 -2.296875 15.21875 -2.234375 C 15.238281 -2.179688 15.253906 -2.132812 15.265625 -2.09375 L 18.890625 8.84375 L 19.515625 10.734375 C 19.753906 11.472656 20.144531 11.929688 20.6875 12.109375 C 21.101562 12.234375 21.625 12.222656 22.25 12.078125 L 20.859375 7.90625 C 20.984375 7.875 21.097656 7.835938 21.203125 7.796875 C 21.316406 7.765625 21.445312 7.726562 21.59375 7.6875 C 22.570312 7.363281 23.222656 6.972656 23.546875 6.515625 C 23.617188 6.398438 23.675781 6.285156 23.71875 6.171875 C 23.757812 6.054688 23.789062 5.945312 23.8125 5.84375 L 25.09375 9.703125 C 25.101562 9.535156 25.097656 9.359375 25.078125 9.171875 C 25.066406 8.984375 25.023438 8.78125 24.953125 8.5625 L 24.4375 7 L 20.703125 -4.265625 C 20.679688 -4.347656 20.671875 -4.484375 20.671875 -4.671875 C 20.671875 -4.859375 20.765625 -5.035156 20.953125 -5.203125 L 20.078125 -7.859375 C 20.128906 -7.890625 20.195312 -7.929688 20.28125 -7.984375 C 20.363281 -8.035156 20.453125 -8.078125 20.546875 -8.109375 L 22.171875 -8.640625 L 22.765625 -6.828125 L 23.484375 -7.0625 C 23.941406 -7.21875 24.257812 -7.203125 24.4375 -7.015625 C 24.625 -6.828125 24.738281 -6.675781 24.78125 -6.5625 L 29.046875 6.359375 C 29.691406 8.285156 29.582031 9.882812 28.71875 11.15625 L 28.234375 9.6875 C 28.210938 9.707031 28.191406 9.726562 28.171875 9.75 C 28.160156 9.769531 28.144531 9.800781 28.125 9.84375 C 27.925781 10.125 27.679688 10.394531 27.390625 10.65625 C 27.109375 10.914062 26.796875 11.164062 26.453125 11.40625 L 27.5 14.578125 C 27.394531 14.660156 27.285156 14.734375 27.171875 14.796875 C 27.054688 14.859375 26.945312 14.921875 26.84375 14.984375 L 25.984375 12.390625 C 25.628906 12.578125 25.242188 12.765625 24.828125 12.953125 C 24.410156 13.140625 23.96875 13.3125 23.5 13.46875 C 23.375 13.507812 23.25 13.546875 23.125 13.578125 C 23.007812 13.617188 22.890625 13.648438 22.765625 13.671875 L 23.078125 14.59375 C 22.703125 14.695312 22.328125 14.78125 21.953125 14.84375 C 21.578125 14.90625 21.207031 14.957031 20.84375 15 C 20.59375 15.03125 20.351562 15.046875 20.125 15.046875 C 19.894531 15.054688 19.664062 15.050781 19.4375 15.03125 C 19.4375 15.007812 19.429688 15 19.421875 15 C 19.410156 15.007812 19.40625 15.015625 19.40625 15.015625 C 19.21875 15.003906 19.019531 14.976562 18.8125 14.9375 Z M 18.8125 14.9375 "/></g></g></g><g fill="#ffffff" fill-opacity="1"><g transform="translate(56.240708, 253.096246)"><g><path d="M 12.296875 17.59375 C 11.890625 17.84375 11.566406 17.90625 11.328125 17.78125 C 11.097656 17.65625 10.945312 17.53125 10.875 17.40625 L 9.640625 15.4375 C 9.566406 15.332031 9.523438 15.148438 9.515625 14.890625 C 9.503906 14.628906 9.703125 14.375 10.109375 14.125 L 11.4375 13.28125 L 9.890625 10.796875 L 12.65625 9.0625 L 14.46875 11.96875 L 16.09375 10.953125 L 15.5625 10.09375 L 17.9375 8.609375 L 17.640625 8.15625 L 11.6875 -1.34375 L 11 -2.453125 L 8.625 -0.96875 L 9.3125 0.140625 L 6.546875 1.875 L 5.609375 0.375 L 3.984375 1.390625 L 4.921875 2.890625 L 3.59375 3.734375 C 3.1875 3.984375 2.867188 4.046875 2.640625 3.921875 C 2.421875 3.804688 2.269531 3.6875 2.1875 3.5625 L 0.953125 1.59375 C 0.890625 1.488281 0.851562 1.304688 0.84375 1.046875 C 0.832031 0.785156 1.03125 0.53125 1.4375 0.28125 L 2.765625 -0.5625 L 2.484375 -1.015625 L 4.109375 -2.03125 L 5.25 -2.75 L 5.765625 -1.90625 L 7.390625 -2.921875 L 6.875 -3.765625 L 11.09375 -6.40625 L 14.71875 -0.609375 L 15.25 -0.9375 L 11.625 -6.734375 L 14.3125 -8.421875 L 14.96875 -7.375 L 16.59375 -8.390625 L 14.859375 -11.140625 L 17.90625 -13.0625 L 19.90625 -9.890625 L 21.546875 -10.90625 L 20.625 -12.375 L 21.015625 -12.625 C 21.410156 -12.875 21.722656 -12.929688 21.953125 -12.796875 C 22.179688 -12.671875 22.332031 -12.550781 22.40625 -12.4375 L 23.46875 -10.75 C 23.539062 -10.644531 23.578125 -10.460938 23.578125 -10.203125 C 23.585938 -9.941406 23.394531 -9.6875 23 -9.4375 L 22.609375 -9.1875 L 23.0625 -8.46875 L 21.421875 -7.453125 L 20.515625 -8.90625 L 19.96875 -8.5625 L 20.3125 -8.015625 L 17.8125 -6.4375 L 18.375 -5.53125 L 16.75 -4.515625 L 16.0625 -5.625 L 14.890625 -4.890625 L 15.578125 -3.78125 L 21.125 5.046875 L 21.828125 6.171875 L 23 5.4375 L 23.65625 6.484375 L 25.28125 5.46875 L 24.625 4.421875 L 27.671875 2.5 L 28.59375 3.96875 L 30.234375 2.953125 L 29.3125 1.484375 L 29.703125 1.234375 C 30.097656 0.984375 30.40625 0.914062 30.625 1.03125 C 30.851562 1.15625 31.007812 1.28125 31.09375 1.40625 L 32.140625 3.09375 C 32.210938 3.195312 32.253906 3.378906 32.265625 3.640625 C 32.273438 3.898438 32.082031 4.15625 31.6875 4.40625 L 31.296875 4.65625 L 31.765625 5.390625 L 30.125 6.40625 L 29.203125 4.953125 L 28.65625 5.296875 L 29 5.828125 L 26.5 7.40625 L 27.078125 8.328125 L 25.453125 9.34375 L 24.734375 8.21875 L 22.046875 9.90625 L 22.765625 11.03125 L 22.234375 11.359375 L 22.078125 11.125 L 17.859375 13.765625 L 18.015625 14 L 15.25 15.734375 L 14.28125 14.203125 L 12.65625 15.21875 L 13.625 16.75 Z M 12.296875 17.59375 "/></g></g></g><g fill="#ffffff" fill-opacity="1"><g transform="translate(75.613568, 282.431723)"><g><path d="M 14.234375 12.046875 C 14.015625 11.992188 13.785156 11.929688 13.546875 11.859375 C 13.316406 11.796875 13.085938 11.71875 12.859375 11.625 C 11.898438 11.1875 10.9375 10.503906 9.96875 9.578125 L 4.984375 4.796875 C 4.015625 3.867188 3.289062 2.9375 2.8125 2 C 2.707031 1.78125 2.617188 1.554688 2.546875 1.328125 C 2.472656 1.109375 2.40625 0.882812 2.34375 0.65625 L 3.109375 1.390625 C 3.078125 1.128906 3.046875 0.863281 3.015625 0.59375 C 2.992188 0.332031 3 0.0703125 3.03125 -0.1875 C 3.03125 -0.414062 3.054688 -0.640625 3.109375 -0.859375 C 3.171875 -1.078125 3.234375 -1.300781 3.296875 -1.53125 L 2.5625 -2.234375 C 2.601562 -2.359375 2.644531 -2.484375 2.6875 -2.609375 C 2.738281 -2.734375 2.796875 -2.859375 2.859375 -2.984375 L 3.015625 -2.828125 C 3.097656 -3.003906 3.179688 -3.179688 3.265625 -3.359375 C 3.347656 -3.546875 3.445312 -3.726562 3.5625 -3.90625 C 3.726562 -4.195312 3.921875 -4.5 4.140625 -4.8125 C 4.367188 -5.125 4.625 -5.453125 4.90625 -5.796875 L 4.78125 -5.921875 C 5.1875 -6.441406 5.648438 -6.976562 6.171875 -7.53125 L 6.234375 -7.59375 L 6.484375 -7.359375 L 9.03125 -10.015625 L 8.78125 -10.25 L 9.296875 -10.796875 L 10.140625 -10 L 11.28125 -11.1875 C 11.820312 -11.75 12.347656 -12.253906 12.859375 -12.703125 C 13.367188 -13.148438 13.863281 -13.539062 14.34375 -13.875 L 13.5 -14.671875 C 13.644531 -14.765625 13.738281 -14.832031 13.78125 -14.875 C 14.4375 -15.289062 15.039062 -15.59375 15.59375 -15.78125 L 15.8125 -15.5625 C 16.050781 -15.65625 16.273438 -15.726562 16.484375 -15.78125 C 16.691406 -15.84375 16.894531 -15.890625 17.09375 -15.921875 C 17.195312 -15.941406 17.289062 -15.953125 17.375 -15.953125 C 17.46875 -15.960938 17.5625 -15.96875 17.65625 -15.96875 L 18.890625 -14.78125 C 19.660156 -14.8125 20.453125 -14.660156 21.265625 -14.328125 C 22.222656 -13.910156 23.191406 -13.234375 24.171875 -12.296875 L 28.15625 -8.46875 C 29.132812 -7.53125 29.859375 -6.59375 30.328125 -5.65625 C 30.765625 -4.71875 30.945312 -3.742188 30.875 -2.734375 C 30.84375 -2.304688 30.742188 -1.867188 30.578125 -1.421875 L 29.765625 -2.203125 C 29.585938 -1.597656 29.304688 -0.988281 28.921875 -0.375 C 28.910156 -0.320312 28.882812 -0.273438 28.84375 -0.234375 C 28.800781 -0.191406 28.765625 -0.140625 28.734375 -0.078125 L 29.546875 0.703125 C 29.222656 1.179688 28.847656 1.679688 28.421875 2.203125 C 27.992188 2.734375 27.507812 3.28125 26.96875 3.84375 L 25.828125 5.03125 L 25.453125 4.671875 L 24.9375 5.21875 L 25.3125 5.578125 L 22.703125 8.296875 C 22.109375 8.921875 21.53125 9.484375 20.96875 9.984375 C 20.414062 10.484375 19.878906 10.898438 19.359375 11.234375 C 19.179688 11.347656 19.007812 11.453125 18.84375 11.546875 C 18.675781 11.648438 18.507812 11.75 18.34375 11.84375 L 17.59375 11.125 C 17.46875 11.195312 17.34375 11.257812 17.21875 11.3125 C 17.101562 11.363281 16.988281 11.414062 16.875 11.46875 L 17.59375 12.15625 C 17.113281 12.332031 16.671875 12.453125 16.265625 12.515625 C 16.015625 12.578125 15.757812 12.597656 15.5 12.578125 C 15.25 12.554688 14.984375 12.53125 14.703125 12.5 Z M 15 7.703125 C 15.351562 7.867188 15.734375 7.914062 16.140625 7.84375 C 16.535156 7.757812 16.96875 7.546875 17.4375 7.203125 C 17.53125 7.148438 17.617188 7.078125 17.703125 6.984375 C 17.796875 6.898438 17.898438 6.820312 18.015625 6.75 L 18.6875 7.40625 C 19.050781 7.101562 19.429688 6.742188 19.828125 6.328125 L 20.28125 5.859375 L 14.609375 0.421875 L 17.671875 -2.78125 L 23.34375 2.65625 L 24.84375 1.09375 C 25.476562 0.4375 25.96875 -0.15625 26.3125 -0.6875 C 26.457031 -0.90625 26.578125 -1.113281 26.671875 -1.3125 C 26.765625 -1.519531 26.820312 -1.710938 26.84375 -1.890625 L 26.015625 -2.6875 C 26.023438 -2.707031 26.046875 -2.765625 26.078125 -2.859375 C 26.117188 -3.234375 26.054688 -3.601562 25.890625 -3.96875 C 25.773438 -4.164062 25.632812 -4.367188 25.46875 -4.578125 C 25.3125 -4.796875 25.109375 -5.019531 24.859375 -5.25 L 24.0625 -6.015625 L 19.640625 -10.265625 L 18.84375 -11.03125 C 18.601562 -11.257812 18.375 -11.445312 18.15625 -11.59375 C 17.9375 -11.75 17.722656 -11.882812 17.515625 -12 C 17.140625 -12.144531 16.757812 -12.195312 16.375 -12.15625 C 16.28125 -12.113281 16.226562 -12.082031 16.21875 -12.0625 L 17.03125 -11.296875 C 16.707031 -11.242188 16.3125 -11.050781 15.84375 -10.71875 C 15.332031 -10.34375 14.757812 -9.828125 14.125 -9.171875 L 9.5625 -4.40625 L 7.96875 -5.9375 L 7.515625 -5.46875 C 7.328125 -5.269531 7.140625 -5.066406 6.953125 -4.859375 C 6.773438 -4.660156 6.617188 -4.472656 6.484375 -4.296875 L 8.09375 -2.75 C 7.914062 -2.570312 7.769531 -2.378906 7.65625 -2.171875 C 7.34375 -1.679688 7.148438 -1.234375 7.078125 -0.828125 C 7.023438 -0.421875 7.09375 -0.0390625 7.28125 0.3125 C 7.445312 0.675781 7.78125 1.097656 8.28125 1.578125 L 8.4375 1.734375 L 13.5 6.59375 L 13.671875 6.734375 C 14.148438 7.203125 14.59375 7.523438 15 7.703125 Z M 15 7.703125 "/></g></g></g><g fill="#ffffff" fill-opacity="1"><g transform="translate(103.083924, 307.362288)"><g><path d="M 28.75 -9.1875 C 28.5 -8.75 28.25 -8.535156 28 -8.546875 C 27.75 -8.566406 27.5625 -8.613281 27.4375 -8.6875 L 21.9375 -11.765625 L 20.46875 -12.59375 L 20 -11.765625 L 26.65625 -8.03125 L 26.296875 -7.390625 L 20.1875 -10.8125 L 18.03125 -6.984375 L 18.953125 -6.46875 L 17.84375 -4.5 L 18.671875 -4.03125 L 17 -1.046875 L 16.171875 -1.515625 L 15.8125 -0.875 L 14.890625 -1.390625 L 13.796875 0.5625 L 14.71875 1.078125 L 13.609375 3.03125 L 12.15625 5.625 C 11.925781 6.039062 11.6875 6.242188 11.4375 6.234375 C 11.195312 6.222656 11.019531 6.191406 10.90625 6.140625 L 9.921875 5.578125 C 9.785156 5.503906 9.648438 5.363281 9.515625 5.15625 C 9.390625 4.945312 9.441406 4.632812 9.671875 4.21875 L 10.046875 3.546875 L 6.84375 1.75 L 7.921875 -0.171875 L 10.21875 1.125 L 11.328125 -0.828125 L 10.71875 -1.171875 L 11.8125 -3.125 L 12.421875 -2.78125 L 12.78125 -3.421875 L 10.640625 -4.625 L 12.3125 -7.609375 L 14.453125 -6.40625 L 15.5625 -8.375 L 14.953125 -8.71875 L 17.109375 -12.546875 L 18.625 -11.703125 L 18.984375 -12.34375 L 17.46875 -13.1875 L 17.9375 -14.015625 L 16.46875 -14.84375 L 10.984375 -17.921875 C 10.867188 -17.984375 10.734375 -18.125 10.578125 -18.34375 C 10.421875 -18.5625 10.46875 -18.890625 10.71875 -19.328125 L 11.4375 -20.59375 L 12.0625 -20.234375 L 12.546875 -21.09375 C 12.773438 -21.507812 13.019531 -21.707031 13.28125 -21.6875 C 13.539062 -21.675781 13.726562 -21.640625 13.84375 -21.578125 L 31.171875 -11.84375 C 31.285156 -11.78125 31.410156 -11.644531 31.546875 -11.4375 C 31.679688 -11.226562 31.632812 -10.914062 31.40625 -10.5 L 30.921875 -9.640625 L 29.46875 -10.453125 Z M 28.75 -9.1875 "/></g></g></g><g fill="#ffffff" fill-opacity="1"><g transform="translate(135.414477, 324.46326)"><g><path d="M 18.28125 3.671875 C 18.0625 3.742188 17.832031 3.804688 17.59375 3.859375 C 17.351562 3.910156 17.113281 3.945312 16.875 3.96875 C 15.820312 4.0625 14.644531 3.9375 13.34375 3.59375 L 6.671875 1.8125 C 5.367188 1.46875 4.289062 0.992188 3.4375 0.390625 C 3.226562 0.253906 3.039062 0.101562 2.875 -0.0625 C 2.707031 -0.226562 2.535156 -0.398438 2.359375 -0.578125 L 3.390625 -0.296875 C 3.234375 -0.492188 3.082031 -0.703125 2.9375 -0.921875 C 2.789062 -1.148438 2.664062 -1.382812 2.5625 -1.625 C 2.457031 -1.832031 2.375 -2.046875 2.3125 -2.265625 C 2.257812 -2.484375 2.207031 -2.707031 2.15625 -2.9375 L 1.171875 -3.203125 C 1.148438 -3.328125 1.128906 -3.457031 1.109375 -3.59375 C 1.085938 -3.726562 1.070312 -3.859375 1.0625 -3.984375 L 1.28125 -3.921875 C 1.269531 -4.117188 1.253906 -4.316406 1.234375 -4.515625 C 1.222656 -4.710938 1.222656 -4.921875 1.234375 -5.140625 C 1.242188 -5.484375 1.269531 -5.84375 1.3125 -6.21875 C 1.363281 -6.601562 1.425781 -7.015625 1.5 -7.453125 L 1.3125 -7.5 C 1.425781 -8.144531 1.582031 -8.835938 1.78125 -9.578125 L 1.8125 -9.671875 L 2.140625 -9.59375 L 3.078125 -13.140625 L 2.75 -13.21875 L 2.953125 -13.9375 L 4.0625 -13.640625 L 4.484375 -15.234375 C 4.679688 -15.984375 4.894531 -16.675781 5.125 -17.3125 C 5.363281 -17.957031 5.601562 -18.546875 5.84375 -19.078125 L 4.734375 -19.375 C 4.828125 -19.519531 4.878906 -19.625 4.890625 -19.6875 C 5.265625 -20.363281 5.644531 -20.910156 6.03125 -21.328125 L 6.34375 -21.25 C 6.5 -21.445312 6.65625 -21.617188 6.8125 -21.765625 C 6.976562 -21.921875 7.132812 -22.066406 7.28125 -22.203125 C 7.363281 -22.265625 7.441406 -22.316406 7.515625 -22.359375 C 7.597656 -22.398438 7.675781 -22.445312 7.75 -22.5 L 9.421875 -22.0625 C 10.078125 -22.457031 10.835938 -22.707031 11.703125 -22.8125 C 12.753906 -22.90625 13.9375 -22.773438 15.25 -22.421875 L 20.578125 -21.015625 C 21.878906 -20.660156 22.960938 -20.1875 23.828125 -19.59375 C 24.671875 -18.988281 25.300781 -18.222656 25.71875 -17.296875 C 25.894531 -16.898438 26.015625 -16.460938 26.078125 -15.984375 L 25 -16.28125 C 25.144531 -15.675781 25.195312 -15.007812 25.15625 -14.28125 C 25.15625 -14.238281 25.144531 -14.1875 25.125 -14.125 C 25.113281 -14.070312 25.109375 -14.007812 25.109375 -13.9375 L 26.203125 -13.65625 C 26.160156 -13.070312 26.078125 -12.441406 25.953125 -11.765625 C 25.835938 -11.097656 25.679688 -10.390625 25.484375 -9.640625 L 25.0625 -8.046875 L 24.5625 -8.1875 L 24.359375 -7.46875 L 24.859375 -7.328125 L 23.890625 -3.6875 C 23.671875 -2.851562 23.4375 -2.082031 23.1875 -1.375 C 22.945312 -0.675781 22.675781 -0.0546875 22.375 0.484375 C 22.28125 0.679688 22.1875 0.863281 22.09375 1.03125 C 22 1.207031 21.894531 1.375 21.78125 1.53125 L 20.78125 1.265625 C 20.707031 1.367188 20.628906 1.472656 20.546875 1.578125 C 20.460938 1.691406 20.390625 1.800781 20.328125 1.90625 L 21.28125 2.15625 C 20.945312 2.539062 20.613281 2.863281 20.28125 3.125 C 20.082031 3.289062 19.867188 3.425781 19.640625 3.53125 C 19.410156 3.644531 19.164062 3.742188 18.90625 3.828125 Z M 16.84375 -0.5 C 17.238281 -0.519531 17.597656 -0.660156 17.921875 -0.921875 C 18.222656 -1.179688 18.5 -1.570312 18.75 -2.09375 C 18.800781 -2.195312 18.847656 -2.304688 18.890625 -2.421875 C 18.929688 -2.535156 18.976562 -2.65625 19.03125 -2.78125 L 19.9375 -2.53125 C 20.125 -2.976562 20.289062 -3.476562 20.4375 -4.03125 L 20.609375 -4.671875 L 13.015625 -6.6875 L 14.15625 -10.953125 L 21.75 -8.9375 L 22.296875 -11.046875 C 22.535156 -11.921875 22.671875 -12.675781 22.703125 -13.3125 C 22.722656 -13.5625 22.726562 -13.796875 22.71875 -14.015625 C 22.707031 -14.242188 22.664062 -14.441406 22.59375 -14.609375 L 21.46875 -14.90625 C 21.476562 -14.925781 21.476562 -14.984375 21.46875 -15.078125 C 21.3125 -15.441406 21.070312 -15.738281 20.75 -15.96875 C 20.5625 -16.09375 20.34375 -16.207031 20.09375 -16.3125 C 19.84375 -16.425781 19.554688 -16.523438 19.234375 -16.609375 L 18.171875 -16.890625 L 12.25 -18.46875 L 11.171875 -18.765625 C 10.847656 -18.847656 10.554688 -18.898438 10.296875 -18.921875 C 10.035156 -18.953125 9.785156 -18.960938 9.546875 -18.953125 C 9.160156 -18.910156 8.804688 -18.773438 8.484375 -18.546875 C 8.421875 -18.472656 8.382812 -18.425781 8.375 -18.40625 L 9.4375 -18.109375 C 9.195312 -17.898438 8.953125 -17.546875 8.703125 -17.046875 C 8.441406 -16.460938 8.191406 -15.734375 7.953125 -14.859375 L 6.265625 -8.484375 L 4.109375 -9.0625 L 3.9375 -8.421875 C 3.863281 -8.148438 3.796875 -7.878906 3.734375 -7.609375 C 3.679688 -7.347656 3.632812 -7.109375 3.59375 -6.890625 L 5.765625 -6.3125 C 5.703125 -6.0625 5.664062 -5.820312 5.65625 -5.59375 C 5.613281 -5.007812 5.660156 -4.523438 5.796875 -4.140625 C 5.941406 -3.753906 6.179688 -3.457031 6.515625 -3.25 C 6.847656 -3.007812 7.351562 -2.796875 8.03125 -2.609375 L 8.234375 -2.5625 L 15.015625 -0.75 L 15.234375 -0.703125 C 15.867188 -0.523438 16.40625 -0.457031 16.84375 -0.5 Z M 16.84375 -0.5 "/></g></g></g><g fill="#ffffff" fill-opacity="1"><g transform="translate(171.497637, 333.017659)"><g><path d="M 18.59375 -1.140625 C 17.957031 -0.234375 17.0625 0.207031 15.90625 0.1875 L 6.953125 0.109375 C 5.609375 0.0859375 4.441406 -0.101562 3.453125 -0.46875 C 2.796875 -0.71875 2.21875 -1.0625 1.71875 -1.5 L 3.28125 -1.484375 C 3.007812 -1.710938 2.789062 -1.941406 2.625 -2.171875 C 2.488281 -2.359375 2.359375 -2.554688 2.234375 -2.765625 C 2.109375 -2.984375 1.992188 -3.207031 1.890625 -3.4375 L 0.34375 -3.453125 C 0.300781 -3.554688 0.253906 -3.660156 0.203125 -3.765625 C 0.160156 -3.878906 0.117188 -3.988281 0.078125 -4.09375 L 2 -4.078125 C 1.9375 -4.265625 1.875 -4.453125 1.8125 -4.640625 C 1.75 -4.828125 1.695312 -5.023438 1.65625 -5.234375 C 1.539062 -5.796875 1.457031 -6.394531 1.40625 -7.03125 L -0.515625 -7.046875 C -0.535156 -7.359375 -0.550781 -7.675781 -0.5625 -8 C -0.582031 -8.320312 -0.601562 -8.660156 -0.625 -9.015625 L 0.21875 -9.015625 C 0.21875 -9.109375 0.210938 -9.21875 0.203125 -9.34375 C 0.191406 -9.46875 0.1875 -9.59375 0.1875 -9.71875 L 0.21875 -12.140625 L -0.59375 -12.140625 L -0.5625 -15.875 C -0.550781 -16.207031 -0.539062 -16.523438 -0.53125 -16.828125 C -0.519531 -17.140625 -0.5 -17.441406 -0.46875 -17.734375 L 0 -17.734375 C 0.0195312 -18.085938 0.0507812 -18.425781 0.09375 -18.75 C 0.144531 -19.070312 0.191406 -19.375 0.234375 -19.65625 L -0.203125 -19.65625 C -0.179688 -19.757812 -0.164062 -19.867188 -0.15625 -19.984375 C -0.144531 -20.097656 -0.128906 -20.195312 -0.109375 -20.28125 C 0.00390625 -20.695312 0.128906 -21.085938 0.265625 -21.453125 C 0.398438 -21.816406 0.554688 -22.148438 0.734375 -22.453125 L 3.75 -22.421875 C 3.894531 -22.710938 4.078125 -23 4.296875 -23.28125 C 4.640625 -23.695312 5.03125 -24.050781 5.46875 -24.34375 L 2.453125 -24.375 C 2.804688 -24.625 3.222656 -24.84375 3.703125 -25.03125 C 4.703125 -25.375 5.875 -25.535156 7.21875 -25.515625 L 18.5625 -25.40625 C 18.6875 -25.40625 18.851562 -25.335938 19.0625 -25.203125 C 19.28125 -25.078125 19.390625 -24.78125 19.390625 -24.3125 L 19.390625 -24.1875 L 21.4375 -24.171875 L 21.421875 -22.234375 L 18.6875 -22.265625 L 18.671875 -21.890625 C 18.671875 -21.398438 18.554688 -21.097656 18.328125 -20.984375 C 18.097656 -20.867188 17.921875 -20.816406 17.796875 -20.828125 L 7.328125 -20.921875 L 4.59375 -20.953125 C 4.269531 -20.953125 3.976562 -20.929688 3.71875 -20.890625 C 3.457031 -20.859375 3.210938 -20.8125 2.984375 -20.75 C 2.578125 -20.59375 2.257812 -20.367188 2.03125 -20.078125 C 2.007812 -20.015625 1.976562 -19.945312 1.9375 -19.875 C 1.894531 -19.800781 1.851562 -19.722656 1.8125 -19.640625 L 10.796875 -19.546875 C 10.671875 -19.304688 10.570312 -19 10.5 -18.625 C 10.476562 -18.476562 10.457031 -18.320312 10.4375 -18.15625 C 10.414062 -17.988281 10.394531 -17.8125 10.375 -17.625 L 2.578125 -17.703125 C 2.546875 -17.492188 2.53125 -17.28125 2.53125 -17.0625 C 2.53125 -16.851562 2.53125 -16.625 2.53125 -16.375 L 2.484375 -12.765625 L 4.015625 -12.75 L 3.984375 -9.140625 C 3.984375 -9.117188 3.984375 -9.09375 3.984375 -9.0625 C 3.984375 -9.03125 3.984375 -9 3.984375 -8.96875 L 1.828125 -9 C 1.828125 -8.601562 1.832031 -8.242188 1.84375 -7.921875 C 1.863281 -7.597656 1.894531 -7.300781 1.9375 -7.03125 L 4.109375 -7 C 4.109375 -6.914062 4.113281 -6.851562 4.125 -6.8125 C 4.207031 -6.257812 4.375 -5.804688 4.625 -5.453125 C 4.863281 -5.117188 5.171875 -4.882812 5.546875 -4.75 C 5.921875 -4.601562 6.457031 -4.523438 7.15625 -4.515625 L 9.0625 -4.5 L 15.859375 -4.4375 L 17.75 -4.40625 C 18.125 -4.40625 18.382812 -4.519531 18.53125 -4.75 C 18.59375 -4.851562 18.65625 -5.019531 18.71875 -5.25 C 18.789062 -5.476562 18.828125 -5.828125 18.828125 -6.296875 C 18.828125 -6.296875 18.820312 -6.347656 18.8125 -6.453125 C 18.800781 -6.554688 18.800781 -6.691406 18.8125 -6.859375 L 13.28125 -6.90625 C 13.28125 -7.15625 13.273438 -7.457031 13.265625 -7.8125 C 13.265625 -8.164062 13.265625 -8.519531 13.265625 -8.875 L 17.734375 -8.828125 C 17.734375 -9.296875 17.726562 -9.71875 17.71875 -10.09375 C 17.71875 -10.46875 17.71875 -10.65625 17.71875 -10.65625 L 16.921875 -10.671875 L 9.984375 -10.75 C 9.859375 -10.75 9.6875 -10.8125 9.46875 -10.9375 C 9.257812 -11.0625 9.160156 -11.367188 9.171875 -11.859375 L 9.171875 -12.046875 L 9.8125 -12.046875 L 9.8125 -12.703125 L 8.328125 -12.71875 L 8.34375 -14.234375 C 8.351562 -14.734375 8.472656 -15.039062 8.703125 -15.15625 C 8.929688 -15.28125 9.101562 -15.34375 9.21875 -15.34375 L 18.703125 -15.25 C 18.910156 -15.25 19.140625 -15.164062 19.390625 -15 C 19.648438 -14.84375 19.773438 -14.46875 19.765625 -13.875 L 19.75 -12.59375 L 24.515625 -12.546875 L 24.484375 -8.765625 L 19.078125 -8.828125 L 19.0625 -6.859375 L 21.234375 -6.828125 L 21.21875 -5.53125 C 21.207031 -4.925781 21.171875 -4.375 21.109375 -3.875 L 18.5 -3.90625 C 18.476562 -3.800781 18.457031 -3.691406 18.4375 -3.578125 C 18.425781 -3.472656 18.410156 -3.367188 18.390625 -3.265625 L 23.609375 -3.21875 C 23.546875 -2.820312 23.457031 -2.460938 23.34375 -2.140625 C 23.238281 -1.816406 23.113281 -1.53125 22.96875 -1.28125 L 18.71875 -1.328125 C 18.675781 -1.285156 18.632812 -1.222656 18.59375 -1.140625 Z M 18.59375 -1.140625 "/></g></g></g><g fill="#ffffff" fill-opacity="1"><g transform="translate(207.568559, 332.440186)"><g><path d="M 20.96875 -5.671875 C 21 -5.242188 20.816406 -4.984375 20.421875 -4.890625 L 17.609375 -4.21875 C 17.304688 -4.144531 17.082031 -4.15625 16.9375 -4.25 C 16.78125 -4.3125 16.632812 -4.425781 16.5 -4.59375 L 16.40625 -4.703125 L 15.921875 -4.578125 L 12.625 -8.09375 L 13.9375 -8.40625 L 13.34375 -9.0625 L 10.359375 -8.34375 L 7.5 -11.375 L 10.34375 -12.0625 L 9.359375 -13.125 L 8.1875 -12.828125 L 1.84375 -11.3125 L 2.125 -10.09375 L 1.234375 -9.875 L 2.09375 -6.359375 L 2.984375 -6.578125 L 3.15625 -5.8125 L 2.265625 -5.59375 L 3.171875 -1.859375 C 3.179688 -1.796875 3.1875 -1.734375 3.1875 -1.671875 C 3.195312 -1.609375 3.207031 -1.554688 3.21875 -1.515625 L 4.109375 -1.734375 C 4.109375 -1.390625 4.023438 -1.15625 3.859375 -1.03125 C 3.703125 -0.90625 3.578125 -0.832031 3.484375 -0.8125 L 1.1875 -0.25 C 1.082031 -0.226562 0.925781 -0.234375 0.71875 -0.265625 C 0.507812 -0.304688 0.332031 -0.484375 0.1875 -0.796875 L -0.328125 -0.671875 C -0.335938 -0.710938 -0.351562 -0.757812 -0.375 -0.8125 C -0.40625 -0.863281 -0.425781 -0.921875 -0.4375 -0.984375 L -1.34375 -4.71875 L 0 -5.046875 L -0.171875 -5.8125 L -1.515625 -5.484375 L -2.375 -9 L -1.1875 -9.28125 L -1.703125 -11.46875 L -2.890625 -11.1875 L -3.5 -13.671875 C -3.550781 -13.878906 -3.554688 -14.0625 -3.515625 -14.21875 C -3.472656 -14.375 -3.421875 -14.503906 -3.359375 -14.609375 L -1.21875 -15.125 C -1.132812 -15.238281 -1.046875 -15.3125 -0.953125 -15.34375 C -0.867188 -15.375 -0.796875 -15.394531 -0.734375 -15.40625 L 10.296875 -18.0625 L 12.4375 -18.578125 C 13.113281 -18.742188 13.566406 -19.0625 13.796875 -19.53125 L 6.421875 -17.75 C 6.429688 -17.78125 6.441406 -17.800781 6.453125 -17.8125 C 6.460938 -17.820312 6.472656 -17.835938 6.484375 -17.859375 C 6.671875 -18.378906 6.664062 -19.113281 6.46875 -20.0625 L 12.90625 -21.609375 C 12.90625 -21.628906 12.898438 -21.644531 12.890625 -21.65625 C 12.890625 -21.664062 12.890625 -21.679688 12.890625 -21.703125 C 12.671875 -22.597656 12.359375 -23.25 11.953125 -23.65625 L 10.796875 -23.359375 C 10.734375 -23.441406 10.703125 -23.484375 10.703125 -23.484375 C 10.285156 -23.859375 9.691406 -23.945312 8.921875 -23.75 L 7.609375 -23.4375 L -4.21875 -20.59375 C -4.363281 -20.550781 -4.5625 -20.554688 -4.8125 -20.609375 C -5.0625 -20.671875 -5.242188 -20.929688 -5.359375 -21.390625 L -5.4375 -21.75 L -4.375 -22.015625 L -4.875 -24.046875 C -4.882812 -24.085938 -4.890625 -24.113281 -4.890625 -24.125 C -4.890625 -24.144531 -4.894531 -24.164062 -4.90625 -24.1875 L -5.9375 -23.9375 C -5.988281 -24.351562 -5.925781 -24.632812 -5.75 -24.78125 C -5.570312 -24.925781 -5.421875 -25.015625 -5.296875 -25.046875 L 7.109375 -28.03125 C 8.515625 -28.375 9.710938 -28.34375 10.703125 -27.9375 L 12.25 -28.3125 C 12.71875 -28.164062 13.148438 -27.910156 13.546875 -27.546875 C 13.835938 -27.273438 14.144531 -26.941406 14.46875 -26.546875 L 13.140625 -26.234375 C 13.335938 -25.953125 13.523438 -25.644531 13.703125 -25.3125 C 13.890625 -24.976562 14.050781 -24.613281 14.1875 -24.21875 L 15.53125 -24.546875 C 15.644531 -24.234375 15.757812 -23.910156 15.875 -23.578125 C 15.988281 -23.242188 16.09375 -22.882812 16.1875 -22.5 C 16.1875 -22.476562 16.1875 -22.460938 16.1875 -22.453125 C 16.195312 -22.441406 16.203125 -22.425781 16.203125 -22.40625 L 14.171875 -21.921875 C 14.265625 -21.535156 14.335938 -21.15625 14.390625 -20.78125 C 14.453125 -20.414062 14.507812 -20.054688 14.5625 -19.703125 L 20.25 -21.078125 C 20.289062 -20.835938 20.300781 -20.582031 20.28125 -20.3125 L 14.875 -19.015625 C 14.894531 -18.046875 14.753906 -17.171875 14.453125 -16.390625 C 14.253906 -15.960938 14.007812 -15.5625 13.71875 -15.1875 L 15.421875 -15.609375 C 14.835938 -14.984375 14.097656 -14.492188 13.203125 -14.140625 L 14.265625 -13.015625 L 13.359375 -12.796875 L 16.28125 -9.78125 L 17.1875 -10 L 17.765625 -9.328125 L 16.875 -9.109375 L 19.765625 -6.140625 C 19.878906 -6.023438 19.96875 -5.835938 20.03125 -5.578125 L 20.9375 -5.796875 C 20.945312 -5.773438 20.953125 -5.753906 20.953125 -5.734375 C 20.960938 -5.710938 20.96875 -5.691406 20.96875 -5.671875 Z M 20.96875 -5.671875 "/></g></g></g><g fill="#ffffff" fill-opacity="1"><g transform="translate(242.579934, 323.204817)"><g><path d="M 20.140625 -11.40625 C 20.160156 -11.320312 20.15625 -11.203125 20.125 -11.046875 C 20.101562 -10.898438 19.988281 -10.773438 19.78125 -10.671875 L 17.765625 -9.578125 C 17.441406 -9.398438 17.117188 -9.441406 16.796875 -9.703125 L 18.03125 -10.359375 C 18.019531 -10.378906 18.003906 -10.394531 17.984375 -10.40625 C 17.960938 -10.414062 17.945312 -10.429688 17.9375 -10.453125 L 17.515625 -10.78125 L 16.265625 -10.109375 L 14.640625 -11.453125 L 15.34375 -11.84375 L 11.90625 -14.671875 L 11.234375 -14.296875 L 5.515625 -19.0625 L 6.765625 -19.734375 L 6.25 -20.1875 L 4.96875 -19.5 L 2.359375 -21.65625 L 2.9375 -21.96875 L 1.328125 -23.328125 L 1.171875 -23.234375 C 1.171875 -23.234375 1.171875 -23.222656 1.171875 -23.203125 L 1.21875 -22.59375 L 0.765625 -23.015625 C 0.734375 -23.035156 0.710938 -23.039062 0.703125 -23.03125 C 0.691406 -23.03125 0.6875 -23.03125 0.6875 -23.03125 L 0.578125 -22.96875 C 0.578125 -22.96875 0.578125 -22.960938 0.578125 -22.953125 C 0.585938 -22.941406 0.585938 -22.914062 0.578125 -22.875 L 0.8125 -20.828125 L 0.078125 -20.421875 L 0.484375 -17.0625 L 1.21875 -17.46875 L 1.296875 -16.78125 L 1.875 -12.140625 L 5.234375 -13.96875 C 5.273438 -13.988281 5.320312 -14.003906 5.375 -14.015625 C 5.4375 -14.035156 5.476562 -14.050781 5.5 -14.0625 C 5.582031 -14.082031 5.671875 -14.082031 5.765625 -14.0625 C 5.765625 -14.0625 5.773438 -14.066406 5.796875 -14.078125 C 6.023438 -14.035156 6.191406 -13.960938 6.296875 -13.859375 L 4.859375 -13.078125 C 4.859375 -13.078125 4.859375 -13.070312 4.859375 -13.0625 C 4.867188 -13.050781 4.875 -13.046875 4.875 -13.046875 L 6.484375 -11.734375 L 7.921875 -12.515625 L 8.625 -11.953125 C 8.90625 -11.722656 9.015625 -11.441406 8.953125 -11.109375 C 8.941406 -10.765625 8.78125 -10.507812 8.46875 -10.34375 L 3.171875 -7.46875 L 2.453125 -7.09375 L 2.6875 -5 L 1.828125 -4.53125 L 2.109375 -2.453125 L 2.96875 -2.921875 L 3.046875 -2.359375 C 3.035156 -2.328125 3.03125 -2.304688 3.03125 -2.296875 C 3.039062 -2.296875 3.039062 -2.28125 3.03125 -2.25 L 2.09375 -1.734375 C 2.09375 -1.304688 1.9375 -1.007812 1.625 -0.84375 L -0.421875 0.265625 C -0.640625 0.390625 -0.816406 0.421875 -0.953125 0.359375 C -1.097656 0.296875 -1.207031 0.238281 -1.28125 0.1875 C -1.289062 0.175781 -1.296875 0.164062 -1.296875 0.15625 C -1.304688 0.144531 -1.316406 0.128906 -1.328125 0.109375 L -0.078125 -0.5625 C -0.179688 -0.695312 -0.253906 -0.894531 -0.296875 -1.15625 L -1.53125 -0.484375 C -1.539062 -0.503906 -1.546875 -0.515625 -1.546875 -0.515625 L -1.78125 -2.578125 L -1.09375 -2.9375 L -1.578125 -7.359375 L -2.296875 -6.984375 L -2.546875 -9.0625 L -3.15625 -14.375 L -1.875 -15.078125 L -1.953125 -15.75 L -3.21875 -15.0625 L -3.578125 -18.4375 L -3 -18.75 L -3.25 -20.84375 L -3.8125 -20.53125 L -4.203125 -23.546875 C -4.210938 -23.703125 -4.21875 -23.847656 -4.21875 -23.984375 C -4.226562 -24.128906 -4.242188 -24.265625 -4.265625 -24.390625 L -3.4375 -24.84375 C -3.46875 -25.613281 -3.410156 -26.207031 -3.265625 -26.625 C -3.222656 -26.695312 -3.175781 -26.773438 -3.125 -26.859375 C -3.082031 -26.953125 -3.035156 -27.039062 -2.984375 -27.125 C -2.960938 -27.164062 -2.941406 -27.203125 -2.921875 -27.234375 C -2.910156 -27.265625 -2.898438 -27.296875 -2.890625 -27.328125 L -3.6875 -26.890625 C -3.59375 -27.035156 -3.5 -27.171875 -3.40625 -27.296875 C -3.40625 -27.296875 -3.398438 -27.296875 -3.390625 -27.296875 C -3.378906 -27.304688 -3.375 -27.3125 -3.375 -27.3125 C -3.28125 -27.445312 -3.175781 -27.5625 -3.0625 -27.65625 C -3.03125 -27.695312 -2.988281 -27.734375 -2.9375 -27.765625 C -2.894531 -27.816406 -2.8125 -27.894531 -2.6875 -28 C -2.601562 -28.070312 -2.523438 -28.128906 -2.453125 -28.171875 C -2.378906 -28.210938 -2.304688 -28.25 -2.234375 -28.28125 C -2.140625 -28.332031 -2.050781 -28.378906 -1.96875 -28.421875 C -1.894531 -28.460938 -1.816406 -28.492188 -1.734375 -28.515625 C -1.597656 -28.546875 -1.503906 -28.578125 -1.453125 -28.609375 C -1.410156 -28.597656 -1.367188 -28.601562 -1.328125 -28.625 C -1.296875 -28.644531 -1.253906 -28.65625 -1.203125 -28.65625 C -1.140625 -28.664062 -1.078125 -28.675781 -1.015625 -28.6875 C -0.953125 -28.707031 -0.898438 -28.71875 -0.859375 -28.71875 C -0.765625 -28.707031 -0.71875 -28.703125 -0.71875 -28.703125 C -0.644531 -28.722656 -0.566406 -28.734375 -0.484375 -28.734375 C -0.410156 -28.742188 -0.347656 -28.742188 -0.296875 -28.734375 C 0.609375 -28.703125 1.398438 -28.398438 2.078125 -27.828125 L -0.515625 -26.421875 C -0.484375 -26.367188 -0.441406 -26.328125 -0.390625 -26.296875 C -0.347656 -26.265625 -0.304688 -26.234375 -0.265625 -26.203125 C -0.222656 -26.160156 -0.125 -26.082031 0.03125 -25.96875 L 1.21875 -26.609375 C 1.226562 -26.566406 1.265625 -26.539062 1.328125 -26.53125 L 3.65625 -24.578125 L 5.109375 -25.375 L 6.703125 -24.015625 L 5.984375 -23.625 L 8.59375 -21.453125 L 9.328125 -21.859375 L 12.890625 -18.921875 L 13.984375 -18.015625 L 12.546875 -17.234375 L 14.15625 -15.875 L 15.640625 -16.6875 L 19.0625 -13.859375 L 18.171875 -13.375 L 19.78125 -12.0625 C 19.78125 -12.0625 19.785156 -12.050781 19.796875 -12.03125 L 20.6875 -12.5 C 20.851562 -12.351562 20.96875 -12.179688 21.03125 -11.984375 L 20.09375 -11.484375 C 20.101562 -11.460938 20.113281 -11.441406 20.125 -11.421875 C 20.132812 -11.410156 20.140625 -11.40625 20.140625 -11.40625 Z M 20.140625 -11.40625 "/></g></g></g><g fill="#ffffff" fill-opacity="1"><g transform="translate(276.907362, 303.1824)"><g><path d="M 5.65625 -23.34375 C 5.664062 -23.332031 5.671875 -23.316406 5.671875 -23.296875 C 5.671875 -23.285156 5.671875 -23.28125 5.671875 -23.28125 C 5.722656 -23.050781 5.769531 -22.835938 5.8125 -22.640625 C 5.800781 -22.515625 5.804688 -22.390625 5.828125 -22.265625 C 5.859375 -22.148438 5.863281 -22.03125 5.84375 -21.90625 C 5.84375 -21.863281 5.835938 -21.835938 5.828125 -21.828125 C 5.828125 -21.816406 5.832031 -21.796875 5.84375 -21.765625 C 5.832031 -21.640625 5.8125 -21.519531 5.78125 -21.40625 C 5.75 -21.289062 5.722656 -21.164062 5.703125 -21.03125 L 4.96875 -20.34375 C 4.800781 -19.726562 4.5 -19.097656 4.0625 -18.453125 L 4.765625 -19.125 C 4.492188 -18.78125 4.175781 -18.4375 3.8125 -18.09375 L -3.90625 -10.796875 L 1.4375 -5.09375 L 2.5 -3.953125 L 2.59375 -3.875 C 2.914062 -3.519531 3.035156 -3.222656 2.953125 -2.984375 C 2.867188 -2.742188 2.78125 -2.582031 2.6875 -2.5 L 1.140625 -1.046875 C 1.046875 -0.953125 0.875 -0.867188 0.625 -0.796875 C 0.375 -0.734375 0.0859375 -0.878906 -0.234375 -1.234375 L -0.328125 -1.3125 L -0.875 -0.796875 L -1.9375 -1.9375 L -1.671875 -2.1875 L -3.1875 -3.8125 L -2.546875 -4.421875 L -6.46875 -8.59375 L -7.375 -7.734375 L -7.890625 -8.28125 L -9.703125 -10.234375 C -9.734375 -10.265625 -9.757812 -10.296875 -9.78125 -10.328125 C -9.8125 -10.367188 -9.84375 -10.40625 -9.875 -10.4375 C -9.90625 -10.46875 -9.910156 -10.492188 -9.890625 -10.515625 C -9.929688 -10.566406 -9.96875 -10.628906 -10 -10.703125 C -10 -10.703125 -10.003906 -10.707031 -10.015625 -10.71875 C -10.023438 -10.726562 -10.03125 -10.734375 -10.03125 -10.734375 C -10.039062 -10.785156 -10.046875 -10.820312 -10.046875 -10.84375 C -10.054688 -10.863281 -10.0625 -10.882812 -10.0625 -10.90625 C -10.0625 -10.90625 -10.0625 -10.914062 -10.0625 -10.9375 C -10.0625 -10.957031 -10.0625 -10.96875 -10.0625 -10.96875 C -10.050781 -10.988281 -10.046875 -11.007812 -10.046875 -11.03125 C -10.054688 -11.050781 -10.054688 -11.070312 -10.046875 -11.09375 C -10.046875 -11.113281 -10.046875 -11.125 -10.046875 -11.125 C -10.046875 -11.125 -10.046875 -11.144531 -10.046875 -11.1875 C -10.035156 -11.195312 -10.03125 -11.203125 -10.03125 -11.203125 C -10.039062 -11.210938 -10.035156 -11.222656 -10.015625 -11.234375 C -10.003906 -11.253906 -10 -11.269531 -10 -11.28125 C -10.007812 -11.300781 -10.003906 -11.320312 -9.984375 -11.34375 L -8.53125 -12.6875 C -8.507812 -12.757812 -8.472656 -12.816406 -8.421875 -12.859375 C -8.378906 -12.910156 -8.34375 -12.945312 -8.3125 -12.96875 L 0.078125 -20.84375 L 1.546875 -22.21875 C 2.109375 -22.75 2.359375 -23.296875 2.296875 -23.859375 C 2.222656 -24.285156 2 -24.753906 1.625 -25.265625 L -1.59375 -22.25 C -1.675781 -22.351562 -1.753906 -22.445312 -1.828125 -22.53125 C -1.910156 -22.613281 -2 -22.707031 -2.09375 -22.8125 C -2.800781 -23.5625 -3.429688 -23.992188 -3.984375 -24.109375 C -4.117188 -24.128906 -4.242188 -24.128906 -4.359375 -24.109375 C -4.472656 -24.097656 -4.585938 -24.082031 -4.703125 -24.0625 L -1.734375 -26.828125 C -1.898438 -26.785156 -2.0625 -26.71875 -2.21875 -26.625 C -2.375 -26.53125 -2.535156 -26.40625 -2.703125 -26.25 L -3.921875 -25.109375 L -12.5625 -17 C -12.625 -16.945312 -12.738281 -16.878906 -12.90625 -16.796875 C -13.082031 -16.722656 -13.285156 -16.734375 -13.515625 -16.828125 L -15.5625 -14.90625 C -15.613281 -14.945312 -15.679688 -14.992188 -15.765625 -15.046875 C -15.847656 -15.097656 -15.921875 -15.160156 -15.984375 -15.234375 L -17.15625 -16.484375 L -15.765625 -17.796875 L -16.28125 -18.34375 C -16.613281 -18.695312 -16.734375 -18.992188 -16.640625 -19.234375 C -16.554688 -19.472656 -16.46875 -19.640625 -16.375 -19.734375 L -6.4375 -29.03125 C -4.957031 -30.425781 -3.460938 -30.992188 -1.953125 -30.734375 L -3.078125 -29.6875 C -3.054688 -29.675781 -3.03125 -29.671875 -3 -29.671875 C -2.96875 -29.671875 -2.925781 -29.664062 -2.875 -29.65625 C -2.539062 -29.601562 -2.195312 -29.5 -1.84375 -29.34375 C -1.488281 -29.1875 -1.125 -29.003906 -0.75 -28.796875 L 1.6875 -31.078125 C 1.800781 -31.023438 1.90625 -30.957031 2 -30.875 C 2.101562 -30.789062 2.207031 -30.710938 2.3125 -30.640625 L 0.328125 -28.765625 C 0.648438 -28.546875 0.976562 -28.28125 1.3125 -27.96875 C 1.65625 -27.664062 2 -27.332031 2.34375 -26.96875 C 2.425781 -26.875 2.507812 -26.78125 2.59375 -26.6875 C 2.675781 -26.601562 2.757812 -26.507812 2.84375 -26.40625 L 3.546875 -27.0625 C 3.796875 -26.769531 4.023438 -26.46875 4.234375 -26.15625 C 4.453125 -25.851562 4.648438 -25.539062 4.828125 -25.21875 C 4.984375 -25.007812 5.109375 -24.796875 5.203125 -24.578125 C 5.296875 -24.367188 5.382812 -24.160156 5.46875 -23.953125 C 5.457031 -23.929688 5.453125 -23.914062 5.453125 -23.90625 C 5.460938 -23.90625 5.46875 -23.90625 5.46875 -23.90625 C 5.539062 -23.738281 5.601562 -23.550781 5.65625 -23.34375 Z M 5.65625 -23.34375 "/></g></g></g><g fill="#ffffff" fill-opacity="1"><g transform="translate(302.013355, 278.374766)"><g><path d="M 10.8125 -18.546875 C 11.21875 -18.285156 11.410156 -18.023438 11.390625 -17.765625 C 11.367188 -17.503906 11.316406 -17.3125 11.234375 -17.1875 L 9.96875 -15.234375 C 9.894531 -15.128906 9.742188 -15.015625 9.515625 -14.890625 C 9.285156 -14.765625 8.96875 -14.832031 8.5625 -15.09375 L 7.234375 -15.953125 L 5.640625 -13.515625 L 2.90625 -15.296875 L 4.78125 -18.15625 L 3.171875 -19.203125 L 2.625 -18.375 L 0.28125 -19.90625 L -0.015625 -19.4375 L -6.140625 -10.046875 L -6.859375 -8.953125 L -4.515625 -7.421875 L -3.796875 -8.515625 L -1.0625 -6.734375 L -2.03125 -5.25 L -0.421875 -4.203125 L 0.546875 -5.6875 L 1.875 -4.828125 C 2.28125 -4.566406 2.472656 -4.304688 2.453125 -4.046875 C 2.441406 -3.796875 2.394531 -3.613281 2.3125 -3.5 L 1.046875 -1.546875 C 0.972656 -1.441406 0.820312 -1.328125 0.59375 -1.203125 C 0.375 -1.085938 0.0625 -1.160156 -0.34375 -1.421875 L -1.671875 -2.28125 L -1.96875 -1.828125 L -3.578125 -2.875 L -4.703125 -3.609375 L -4.15625 -4.4375 L -5.765625 -5.484375 L -6.3125 -4.65625 L -10.46875 -7.375 L -6.734375 -13.09375 L -7.265625 -13.4375 L -11 -7.71875 L -13.65625 -9.4375 L -12.984375 -10.46875 L -14.59375 -11.53125 L -16.359375 -8.8125 L -19.375 -10.765625 L -17.328125 -13.90625 L -18.953125 -14.96875 L -19.90625 -13.515625 L -20.296875 -13.765625 C -20.691406 -14.023438 -20.878906 -14.285156 -20.859375 -14.546875 C -20.835938 -14.804688 -20.789062 -14.992188 -20.71875 -15.109375 L -19.625 -16.78125 C -19.550781 -16.882812 -19.398438 -16.992188 -19.171875 -17.109375 C -18.953125 -17.234375 -18.644531 -17.164062 -18.25 -16.90625 L -17.859375 -16.65625 L -17.390625 -17.375 L -15.765625 -16.3125 L -16.703125 -14.875 L -16.15625 -14.53125 L -15.796875 -15.078125 L -13.328125 -13.46875 L -12.75 -14.359375 L -11.140625 -13.296875 L -11.859375 -12.203125 L -10.703125 -11.453125 L -9.984375 -12.546875 L -4.296875 -21.28125 L -3.5625 -22.40625 L -4.71875 -23.15625 L -4.0625 -24.171875 L -5.671875 -25.234375 L -6.328125 -24.21875 L -9.34375 -26.171875 L -8.40625 -27.609375 L -10.03125 -28.671875 L -10.96875 -27.234375 L -11.359375 -27.484375 C -11.753906 -27.742188 -11.941406 -28 -11.921875 -28.25 C -11.910156 -28.5 -11.867188 -28.679688 -11.796875 -28.796875 L -10.71875 -30.46875 C -10.644531 -30.570312 -10.492188 -30.6875 -10.265625 -30.8125 C -10.035156 -30.9375 -9.722656 -30.867188 -9.328125 -30.609375 L -8.9375 -30.359375 L -8.453125 -31.09375 L -6.828125 -30.03125 L -7.765625 -28.59375 L -7.21875 -28.25 L -6.890625 -28.765625 L -4.421875 -27.15625 L -3.8125 -28.078125 L -2.203125 -27.015625 L -2.9375 -25.890625 L -0.28125 -24.171875 L 0.453125 -25.296875 L 0.984375 -24.953125 L 0.828125 -24.71875 L 4.984375 -22 L 5.140625 -22.234375 L 7.875 -20.453125 L 6.875 -18.9375 L 8.484375 -17.890625 L 9.484375 -19.40625 Z M 10.8125 -18.546875 "/></g></g></g><g fill="#ffffff" fill-opacity="1"><g transform="translate(320.531109, 248.46691)"><g><path d="M 3.40625 -12.625 C 3.75 -12.46875 3.929688 -12.273438 3.953125 -12.046875 C 3.972656 -11.816406 3.960938 -11.644531 3.921875 -11.53125 L 3.421875 -10.0625 C 3.378906 -9.9375 3.28125 -9.789062 3.125 -9.625 C 2.96875 -9.46875 2.707031 -9.425781 2.34375 -9.5 L 1.921875 -8.265625 C 1.878906 -8.285156 1.835938 -8.300781 1.796875 -8.3125 C 1.765625 -8.320312 1.738281 -8.332031 1.71875 -8.34375 L 0.1875 -8.859375 L 0.421875 -9.5625 L -1.65625 -10.265625 L -1.890625 -9.5625 L -4.71875 -10.53125 L -5 -10.46875 L -4.46875 -12.046875 L -7.15625 -11.5625 L -7.703125 -9.953125 L -9.25 -9.6875 L -8.734375 -11.234375 L -10.890625 -10.84375 L -11.421875 -9.265625 L -16.109375 -8.40625 L -15.6875 -9.65625 L -17.53125 -9.3125 L -17.953125 -8.078125 L -17.984375 -8.046875 L -20.625 -7.578125 L -20.203125 -8.84375 L -22.859375 -8.328125 L -23.28125 -7.09375 L -23.46875 -7.0625 C -23.707031 -7.007812 -23.925781 -7.046875 -24.125 -7.171875 C -24.375 -7.367188 -24.453125 -7.601562 -24.359375 -7.875 L -23.71875 -9.765625 C -23.675781 -9.878906 -23.585938 -10.007812 -23.453125 -10.15625 C -23.328125 -10.300781 -23.132812 -10.382812 -22.875 -10.40625 L -22.109375 -10.53125 L -21.609375 -12 L -18.953125 -12.5 L -19.390625 -11.21875 L -16.75 -11.671875 L -15.828125 -14.40625 L -15.78125 -14.4375 L -13.953125 -14.75 L -14.96875 -11.75 L -10.296875 -12.5625 L -9.875 -13.8125 L -10.03125 -14.015625 L -8.421875 -14.28125 L -12.5625 -18.8125 L -12.140625 -20.078125 L -13.390625 -21.453125 L -15.0625 -16.578125 L -15.09375 -16.578125 L -16.890625 -18.546875 L -15.234375 -23.453125 L -17.03125 -25.453125 L -17.46875 -24.171875 L -18.015625 -24.765625 C -18.191406 -24.953125 -18.285156 -25.132812 -18.296875 -25.3125 C -18.316406 -25.5 -18.304688 -25.660156 -18.265625 -25.796875 L -17.65625 -27.578125 C -17.5625 -27.835938 -17.367188 -27.972656 -17.078125 -27.984375 C -16.816406 -27.984375 -16.609375 -27.894531 -16.453125 -27.71875 L -16.3125 -27.5625 L -15.828125 -29.03125 L -14.015625 -27.015625 L -14.453125 -25.75 L -12.640625 -23.75 L -12.234375 -24.984375 L -12.203125 -24.984375 L -10.953125 -23.578125 L -11.453125 -22.0625 L -8.28125 -18.484375 L -7.25 -21.515625 L -5.796875 -19.875 L -6.8125 -16.890625 L -5.75 -15.671875 L -5.265625 -17.125 L -3.421875 -15.109375 L -3.6875 -14.3125 L -3.515625 -14.078125 L -0.6875 -13.109375 L -0.40625 -13.921875 L 1.671875 -13.21875 L 3.203125 -12.703125 C 3.273438 -12.671875 3.335938 -12.632812 3.390625 -12.59375 Z M 3.40625 -12.625 "/></g></g></g><g fill="#ffffff" fill-opacity="1"><g transform="translate(46.093992, 155.607674)"><g><path d="M -21.296875 -15.234375 C -21.253906 -15.347656 -21.128906 -15.488281 -20.921875 -15.65625 C -20.710938 -15.820312 -20.394531 -15.820312 -19.96875 -15.65625 L 1.671875 -6.921875 C 2.109375 -6.742188 2.335938 -6.523438 2.359375 -6.265625 C 2.390625 -6.003906 2.382812 -5.816406 2.34375 -5.703125 L 1.28125 -3.078125 C 1.238281 -2.960938 1.113281 -2.820312 0.90625 -2.65625 C 0.707031 -2.5 0.390625 -2.507812 -0.046875 -2.6875 L -21.6875 -11.421875 C -22.113281 -11.585938 -22.34375 -11.796875 -22.375 -12.046875 C -22.40625 -12.304688 -22.398438 -12.492188 -22.359375 -12.609375 Z M -21.296875 -15.234375 "/></g></g></g><g fill="#ffffff" fill-opacity="1"><g transform="translate(53.719046, 136.849954)"><g><path d="M -8.671875 -33.46875 C -8.609375 -33.5625 -8.460938 -33.671875 -8.234375 -33.796875 C -8.003906 -33.921875 -7.691406 -33.851562 -7.296875 -33.59375 L -5.28125 -32.296875 C -4.851562 -32.023438 -4.65625 -31.757812 -4.6875 -31.5 C -4.71875 -31.25 -4.765625 -31.078125 -4.828125 -30.984375 L -11.96875 -19.953125 C -12.144531 -19.679688 -12.289062 -19.421875 -12.40625 -19.171875 C -12.519531 -18.921875 -12.601562 -18.695312 -12.65625 -18.5 C -12.738281 -18.101562 -12.71875 -17.71875 -12.59375 -17.34375 C -12.414062 -16.9375 -12.125 -16.550781 -11.71875 -16.1875 C -11.257812 -15.75 -10.644531 -15.28125 -9.875 -14.78125 L -3.84375 -10.890625 C -3.0625 -10.378906 -2.382812 -10.007812 -1.8125 -9.78125 C -1.289062 -9.550781 -0.820312 -9.441406 -0.40625 -9.453125 C 0.0078125 -9.484375 0.375 -9.617188 0.6875 -9.859375 C 1 -10.097656 1.34375 -10.507812 1.71875 -11.09375 L 6.421875 -18.359375 C 6.617188 -18.660156 6.660156 -18.925781 6.546875 -19.15625 C 6.492188 -19.257812 6.382812 -19.398438 6.21875 -19.578125 C 6.0625 -19.765625 5.785156 -19.984375 5.390625 -20.234375 C 5.390625 -20.234375 5.265625 -20.3125 5.015625 -20.46875 C 4.773438 -20.632812 4.472656 -20.832031 4.109375 -21.0625 C 3.753906 -21.300781 3.390625 -21.53125 3.015625 -21.75 C 2.648438 -21.976562 2.347656 -22.171875 2.109375 -22.328125 C 1.867188 -22.484375 1.75 -22.5625 1.75 -22.5625 L -2.421875 -16.109375 C -2.484375 -16.003906 -2.625 -15.890625 -2.84375 -15.765625 C -3.070312 -15.640625 -3.398438 -15.710938 -3.828125 -15.984375 L -5.796875 -17.265625 C -6.210938 -17.535156 -6.410156 -17.796875 -6.390625 -18.046875 C -6.367188 -18.304688 -6.328125 -18.488281 -6.265625 -18.59375 L -0.328125 -27.78125 C -0.210938 -27.945312 -0.0195312 -28.09375 0.25 -28.21875 C 0.519531 -28.351562 0.90625 -28.257812 1.40625 -27.9375 L 8.359375 -23.4375 C 10.066406 -22.320312 11.132812 -21.28125 11.5625 -20.3125 C 11.976562 -19.289062 11.878906 -18.300781 11.265625 -17.34375 L 5.515625 -8.453125 C 4.785156 -7.335938 4.003906 -6.457031 3.171875 -5.8125 C 2.378906 -5.195312 1.472656 -4.84375 0.453125 -4.75 C -0.578125 -4.65625 -1.664062 -4.816406 -2.8125 -5.234375 C -3.414062 -5.453125 -4.046875 -5.738281 -4.703125 -6.09375 C -5.359375 -6.445312 -6.050781 -6.859375 -6.78125 -7.328125 L -11.90625 -10.65625 C -12.613281 -11.113281 -13.265625 -11.566406 -13.859375 -12.015625 C -14.453125 -12.472656 -14.957031 -12.921875 -15.375 -13.359375 C -15.8125 -13.816406 -16.179688 -14.273438 -16.484375 -14.734375 C -16.785156 -15.203125 -17.019531 -15.675781 -17.1875 -16.15625 C -17.507812 -17.050781 -17.554688 -18.023438 -17.328125 -19.078125 C -17.097656 -20.109375 -16.617188 -21.179688 -15.890625 -22.296875 Z M -8.671875 -33.46875 "/></g></g></g><g fill="#ffffff" fill-opacity="1"><g transform="translate(74.70321, 106.309767)"><g><path d="M 1.453125 -33 C 2.390625 -32.863281 3.398438 -32.425781 4.484375 -31.6875 C 4.960938 -31.320312 5.484375 -30.894531 6.046875 -30.40625 C 6.617188 -29.914062 7.191406 -29.359375 7.765625 -28.734375 L 11.921875 -24.265625 C 12.503906 -23.628906 13.019531 -23.007812 13.46875 -22.40625 C 13.925781 -21.8125 14.3125 -21.257812 14.625 -20.75 C 15.28125 -19.632812 15.65625 -18.585938 15.75 -17.609375 C 15.8125 -16.578125 15.597656 -15.613281 15.109375 -14.71875 C 14.628906 -13.789062 13.898438 -12.875 12.921875 -11.96875 L 7.40625 -6.84375 C 6.40625 -5.914062 5.4375 -5.253906 4.5 -4.859375 C 3.570312 -4.441406 2.59375 -4.316406 1.5625 -4.484375 C 0.570312 -4.648438 -0.4375 -5.085938 -1.46875 -5.796875 C -1.96875 -6.140625 -2.492188 -6.5625 -3.046875 -7.0625 C -3.609375 -7.570312 -4.179688 -8.144531 -4.765625 -8.78125 L -8.921875 -13.25 C -10.128906 -14.550781 -11.023438 -15.710938 -11.609375 -16.734375 C -12.242188 -17.816406 -12.609375 -18.859375 -12.703125 -19.859375 C -12.765625 -20.867188 -12.566406 -21.835938 -12.109375 -22.765625 C -11.617188 -23.691406 -10.890625 -24.609375 -9.921875 -25.515625 L -4.40625 -30.640625 C -3.425781 -31.546875 -2.457031 -32.207031 -1.5 -32.625 C -0.539062 -33.007812 0.441406 -33.132812 1.453125 -33 Z M 4.03125 -26 C 3.71875 -26.332031 3.421875 -26.628906 3.140625 -26.890625 C 2.867188 -27.160156 2.609375 -27.382812 2.359375 -27.5625 C 1.898438 -27.9375 1.457031 -28.15625 1.03125 -28.21875 C 0.675781 -28.289062 0.296875 -28.253906 -0.109375 -28.109375 C -0.304688 -28.003906 -0.507812 -27.878906 -0.71875 -27.734375 C -0.9375 -27.585938 -1.164062 -27.398438 -1.40625 -27.171875 L -6.71875 -22.25 C -6.945312 -22.03125 -7.144531 -21.816406 -7.3125 -21.609375 C -7.476562 -21.410156 -7.613281 -21.222656 -7.71875 -21.046875 C -7.90625 -20.640625 -7.976562 -20.253906 -7.9375 -19.890625 C -7.914062 -19.691406 -7.851562 -19.476562 -7.75 -19.25 C -7.65625 -19.03125 -7.53125 -18.789062 -7.375 -18.53125 C -7.195312 -18.28125 -6.988281 -18.003906 -6.75 -17.703125 C -6.507812 -17.398438 -6.234375 -17.082031 -5.921875 -16.75 L -1.03125 -11.46875 C -0.71875 -11.144531 -0.421875 -10.851562 -0.140625 -10.59375 C 0.128906 -10.332031 0.390625 -10.101562 0.640625 -9.90625 C 0.859375 -9.75 1.078125 -9.609375 1.296875 -9.484375 C 1.515625 -9.367188 1.726562 -9.289062 1.9375 -9.25 C 2.320312 -9.15625 2.707031 -9.203125 3.09375 -9.390625 C 3.457031 -9.546875 3.882812 -9.851562 4.375 -10.3125 L 9.6875 -15.234375 C 10.175781 -15.691406 10.515625 -16.097656 10.703125 -16.453125 C 10.910156 -16.816406 10.976562 -17.191406 10.90625 -17.578125 C 10.863281 -17.972656 10.6875 -18.425781 10.375 -18.9375 C 10.195312 -19.207031 9.988281 -19.488281 9.75 -19.78125 C 9.507812 -20.082031 9.234375 -20.394531 8.921875 -20.71875 Z M 4.03125 -26 "/></g></g></g><g fill="#ffffff" fill-opacity="1"><g transform="translate(103.345172, 81.289674)"><g><path d="M 11.984375 -27.140625 L 12.078125 -26.984375 C 12.066406 -27.003906 12.054688 -27.015625 12.046875 -27.015625 C 12.046875 -27.023438 12.039062 -27.039062 12.03125 -27.0625 C 12.019531 -27.082031 12.007812 -27.097656 12 -27.109375 C 12 -27.117188 11.992188 -27.128906 11.984375 -27.140625 Z M 20.53125 -12.734375 C 20.726562 -12.648438 20.882812 -12.453125 21 -12.140625 C 21.144531 -11.742188 21.035156 -11.445312 20.671875 -11.25 L 17.6875 -9.625 C 17.445312 -9.488281 17.222656 -9.441406 17.015625 -9.484375 C 16.953125 -9.484375 16.878906 -9.503906 16.796875 -9.546875 C 16.710938 -9.597656 16.625 -9.648438 16.53125 -9.703125 L 6.875 -15.71875 L 1.15625 -12.59375 L 5.6875 -4.296875 C 5.90625 -3.878906 5.945312 -3.5625 5.8125 -3.34375 C 5.6875 -3.132812 5.5625 -2.992188 5.4375 -2.921875 L 2.96875 -1.578125 C 2.84375 -1.515625 2.648438 -1.484375 2.390625 -1.484375 C 2.128906 -1.484375 1.890625 -1.691406 1.671875 -2.109375 L -4.546875 -13.5 C -4.773438 -13.914062 -4.816406 -14.226562 -4.671875 -14.4375 C -4.535156 -14.644531 -4.40625 -14.78125 -4.28125 -14.84375 L 7.5 -21.28125 C 8.195312 -21.664062 8.578125 -22.128906 8.640625 -22.671875 C 8.710938 -23.222656 8.5 -23.953125 8 -24.859375 C 7.507812 -25.753906 7.007812 -26.328125 6.5 -26.578125 C 6.019531 -26.828125 5.429688 -26.757812 4.734375 -26.375 L -7.046875 -19.9375 C -7.171875 -19.875 -7.359375 -19.835938 -7.609375 -19.828125 C -7.867188 -19.816406 -8.113281 -20.019531 -8.34375 -20.4375 L -9.515625 -22.578125 C -9.742188 -23.003906 -9.785156 -23.320312 -9.640625 -23.53125 C -9.503906 -23.75 -9.375 -23.890625 -9.25 -23.953125 L 3.25 -30.78125 C 5.113281 -31.800781 6.765625 -31.953125 8.203125 -31.234375 C 9.609375 -30.535156 10.882812 -29.144531 12.03125 -27.0625 C 13.175781 -24.945312 13.65625 -23.117188 13.46875 -21.578125 C 13.300781 -20.265625 12.59375 -19.160156 11.34375 -18.265625 Z M 20.53125 -12.734375 "/></g></g></g><g fill="#ffffff" fill-opacity="1"><g transform="translate(136.740109, 64.782714)"><g/></g></g><g fill="#ffffff" fill-opacity="1"><g transform="translate(162.239019, 57.639306)"><g><path d="M 15.5 -26.796875 C 17.601562 -26.960938 19.164062 -26.425781 20.1875 -25.1875 C 21.195312 -24.03125 21.800781 -22.207031 22 -19.71875 L 21.984375 -19.90625 C 22.179688 -17.457031 21.878906 -15.5625 21.078125 -14.21875 C 20.265625 -12.851562 18.804688 -12.085938 16.703125 -11.921875 L 6.1875 -11.03125 L 6.953125 -1.609375 C 6.984375 -1.140625 6.890625 -0.832031 6.671875 -0.6875 C 6.453125 -0.550781 6.28125 -0.476562 6.15625 -0.46875 L 3.328125 -0.234375 C 3.203125 -0.222656 3.019531 -0.269531 2.78125 -0.375 C 2.539062 -0.488281 2.40625 -0.78125 2.375 -1.25 L 1.328125 -14.1875 C 1.285156 -14.65625 1.375 -14.953125 1.59375 -15.078125 C 1.820312 -15.210938 2 -15.285156 2.125 -15.296875 L 15.546875 -16.375 C 16.328125 -16.4375 16.847656 -16.707031 17.109375 -17.1875 C 17.410156 -17.664062 17.519531 -18.414062 17.4375 -19.4375 C 17.351562 -20.457031 17.125 -21.1875 16.75 -21.625 C 16.414062 -22.039062 15.859375 -22.21875 15.078125 -22.15625 L 1.65625 -21.078125 C 1.53125 -21.066406 1.347656 -21.109375 1.109375 -21.203125 C 0.867188 -21.304688 0.726562 -21.59375 0.6875 -22.0625 L 0.5 -24.5 C 0.457031 -24.988281 0.546875 -25.296875 0.765625 -25.421875 C 0.984375 -25.554688 1.15625 -25.628906 1.28125 -25.640625 Z M 15.5 -26.796875 "/></g></g></g><g fill="#ffffff" fill-opacity="1"><g transform="translate(198.565944, 55.853333)"><g><path d="M 21.640625 -2.21875 C 21.785156 -2.195312 21.957031 -2.109375 22.15625 -1.953125 C 22.363281 -1.804688 22.429688 -1.503906 22.359375 -1.046875 L 21.84375 2.328125 C 21.769531 2.785156 21.609375 3.050781 21.359375 3.125 C 21.117188 3.207031 20.925781 3.238281 20.78125 3.21875 L 9.953125 1.53125 C 9.273438 1.414062 8.660156 1.269531 8.109375 1.09375 C 7.554688 0.925781 7.0625 0.710938 6.625 0.453125 C 5.675781 -0.0351562 4.96875 -0.707031 4.5 -1.5625 C 4.007812 -2.457031 3.726562 -3.53125 3.65625 -4.78125 C 3.632812 -5.289062 3.632812 -5.859375 3.65625 -6.484375 C 3.675781 -7.109375 3.734375 -7.78125 3.828125 -8.5 L 3.84375 -8.65625 L 4.515625 -12.484375 C 4.609375 -12.703125 4.765625 -12.941406 4.984375 -13.203125 C 5.535156 -13.921875 6.285156 -14.238281 7.234375 -14.15625 L 23 -11.71875 C 23.125 -11.695312 23.285156 -11.613281 23.484375 -11.46875 C 23.691406 -11.332031 23.757812 -11.03125 23.6875 -10.5625 L 23.3125 -8.140625 C 23.238281 -7.679688 23.078125 -7.40625 22.828125 -7.3125 C 22.585938 -7.21875 22.40625 -7.179688 22.28125 -7.203125 L 8.65625 -9.34375 C 8.65625 -9.34375 8.632812 -9.226562 8.59375 -9 C 8.550781 -8.78125 8.5 -8.523438 8.4375 -8.234375 C 8.382812 -7.953125 8.34375 -7.703125 8.3125 -7.484375 C 8.28125 -7.265625 8.265625 -7.15625 8.265625 -7.15625 C 8.265625 -7.070312 8.253906 -6.984375 8.234375 -6.890625 C 8.222656 -6.796875 8.222656 -6.707031 8.234375 -6.625 C 8.222656 -6.039062 8.320312 -5.554688 8.53125 -5.171875 C 8.726562 -4.828125 9 -4.554688 9.34375 -4.359375 C 9.550781 -4.265625 9.78125 -4.175781 10.03125 -4.09375 C 10.289062 -4.007812 10.578125 -3.945312 10.890625 -3.90625 Z M 7.421875 -13.890625 Z M 24.75 -21.953125 C 24.875 -21.929688 25.039062 -21.84375 25.25 -21.6875 C 25.457031 -21.53125 25.523438 -21.21875 25.453125 -20.75 L 25.078125 -18.34375 C 24.992188 -17.875 24.832031 -17.59375 24.59375 -17.5 C 24.351562 -17.414062 24.171875 -17.382812 24.046875 -17.40625 L 6.5 -20.171875 C 6.382812 -20.191406 6.222656 -20.273438 6.015625 -20.421875 C 5.816406 -20.578125 5.757812 -20.890625 5.84375 -21.359375 L 6.203125 -23.734375 C 6.285156 -24.222656 6.441406 -24.507812 6.671875 -24.59375 C 6.910156 -24.675781 7.085938 -24.707031 7.203125 -24.6875 Z M 24.75 -21.953125 "/></g></g></g><g fill="#ffffff" fill-opacity="1"><g transform="translate(232.804977, 62.231116)"><g><path d="M 21.84375 -7.515625 C 23.320312 -6.910156 24.238281 -5.925781 24.59375 -4.5625 C 24.925781 -3.226562 24.707031 -1.625 23.9375 0.25 L 22.921875 2.765625 C 22.253906 4.398438 21.34375 5.59375 20.1875 6.34375 C 19.007812 7.113281 17.628906 7.175781 16.046875 6.53125 L 3.140625 1.28125 C 3.015625 1.226562 2.863281 1.101562 2.6875 0.90625 C 2.519531 0.71875 2.523438 0.40625 2.703125 -0.03125 L 3.640625 -2.3125 C 3.816406 -2.757812 4.035156 -2.988281 4.296875 -3 C 4.554688 -3.019531 4.75 -3.003906 4.875 -2.953125 L 17.109375 2.03125 C 17.347656 2.125 17.535156 2.148438 17.671875 2.109375 C 17.804688 2.066406 17.921875 2.019531 18.015625 1.96875 C 18.296875 1.75 18.539062 1.382812 18.75 0.875 L 19.75 -1.59375 C 20.039062 -2.300781 20.101562 -2.785156 19.9375 -3.046875 C 19.78125 -3.316406 19.597656 -3.492188 19.390625 -3.578125 L 10.8125 -7.0625 C 10.21875 -7.3125 9.644531 -7.632812 9.09375 -8.03125 C 8.539062 -8.4375 8.164062 -9.023438 7.96875 -9.796875 C 7.644531 -11.148438 7.890625 -12.828125 8.703125 -14.828125 L 9.59375 -17 C 10.269531 -18.6875 11.191406 -19.890625 12.359375 -20.609375 C 13.523438 -21.359375 14.890625 -21.414062 16.453125 -20.78125 L 28.796875 -15.75 C 28.898438 -15.707031 29.035156 -15.585938 29.203125 -15.390625 C 29.378906 -15.203125 29.378906 -14.894531 29.203125 -14.46875 L 28.28125 -12.171875 C 28.09375 -11.734375 27.867188 -11.5 27.609375 -11.46875 C 27.359375 -11.445312 27.179688 -11.457031 27.078125 -11.5 L 15.421875 -16.25 C 15.171875 -16.351562 14.976562 -16.390625 14.84375 -16.359375 C 14.707031 -16.328125 14.59375 -16.273438 14.5 -16.203125 C 14.226562 -15.960938 13.992188 -15.59375 13.796875 -15.09375 L 12.9375 -12.96875 C 12.644531 -12.269531 12.570312 -11.789062 12.71875 -11.53125 C 12.863281 -11.269531 13.046875 -11.097656 13.265625 -11.015625 Z M 21.84375 -7.515625 "/></g></g></g><g fill="#ffffff" fill-opacity="1"><g transform="translate(264.963546, 76.445181)"><g><path d="M 22.984375 -2.28125 C 24.296875 -1.34375 24.96875 -0.164062 25 1.25 C 24.988281 2.613281 24.398438 4.117188 23.234375 5.765625 L 21.65625 7.96875 C 20.625 9.414062 19.460938 10.375 18.171875 10.84375 C 16.847656 11.3125 15.492188 11.050781 14.109375 10.0625 L 2.765625 1.96875 C 2.648438 1.882812 2.53125 1.726562 2.40625 1.5 C 2.289062 1.28125 2.367188 0.976562 2.640625 0.59375 L 4.078125 -1.40625 C 4.347656 -1.800781 4.609375 -1.976562 4.859375 -1.9375 C 5.117188 -1.90625 5.304688 -1.847656 5.421875 -1.765625 L 16.171875 5.90625 C 16.378906 6.050781 16.554688 6.125 16.703125 6.125 C 16.847656 6.125 16.972656 6.101562 17.078125 6.0625 C 17.398438 5.925781 17.722656 5.632812 18.046875 5.1875 L 19.59375 3.015625 C 20.03125 2.390625 20.203125 1.925781 20.109375 1.625 C 20.015625 1.332031 19.878906 1.125 19.703125 1 L 12.15625 -4.390625 C 11.632812 -4.765625 11.148438 -5.210938 10.703125 -5.734375 C 10.253906 -6.253906 10.019531 -6.910156 10 -7.703125 C 10.007812 -9.085938 10.640625 -10.660156 11.890625 -12.421875 L 13.265625 -14.34375 C 14.316406 -15.8125 15.484375 -16.769531 16.765625 -17.21875 C 18.085938 -17.664062 19.4375 -17.398438 20.8125 -16.421875 L 31.65625 -8.6875 C 31.75 -8.613281 31.851562 -8.460938 31.96875 -8.234375 C 32.09375 -8.015625 32.019531 -7.71875 31.75 -7.34375 L 30.3125 -5.328125 C 30.03125 -4.941406 29.765625 -4.765625 29.515625 -4.796875 C 29.265625 -4.835938 29.09375 -4.894531 29 -4.96875 L 18.765625 -12.265625 C 18.546875 -12.421875 18.363281 -12.5 18.21875 -12.5 C 18.082031 -12.507812 17.960938 -12.484375 17.859375 -12.421875 C 17.535156 -12.242188 17.21875 -11.941406 16.90625 -11.515625 L 15.578125 -9.640625 C 15.128906 -9.023438 14.945312 -8.570312 15.03125 -8.28125 C 15.113281 -8 15.25 -7.789062 15.4375 -7.65625 Z M 22.984375 -2.28125 "/></g></g></g><g fill="#ffffff" fill-opacity="1"><g transform="translate(293.035924, 97.55392)"><g><path d="M 32.921875 2.734375 C 32.742188 3.660156 32.269531 4.65625 31.5 5.71875 C 31.113281 6.1875 30.660156 6.691406 30.140625 7.234375 C 29.628906 7.773438 29.050781 8.320312 28.40625 8.875 L 23.78125 12.859375 C 23.125 13.421875 22.488281 13.914062 21.875 14.34375 C 21.257812 14.769531 20.691406 15.132812 20.171875 15.4375 C 19.015625 16.03125 17.945312 16.359375 16.96875 16.421875 C 15.945312 16.453125 14.992188 16.203125 14.109375 15.671875 C 13.191406 15.148438 12.300781 14.382812 11.4375 13.375 L 6.53125 7.65625 C 5.644531 6.625 5.023438 5.632812 4.671875 4.6875 C 4.296875 3.738281 4.210938 2.757812 4.421875 1.75 C 4.628906 0.75 5.109375 -0.242188 5.859375 -1.234375 C 6.210938 -1.734375 6.648438 -2.25 7.171875 -2.78125 C 7.703125 -3.3125 8.296875 -3.859375 8.953125 -4.421875 L 13.578125 -8.40625 C 14.921875 -9.550781 16.125 -10.398438 17.1875 -10.953125 C 18.28125 -11.546875 19.332031 -11.867188 20.34375 -11.921875 C 21.351562 -11.953125 22.304688 -11.71875 23.203125 -11.21875 C 24.117188 -10.695312 25.007812 -9.9375 25.875 -8.9375 L 30.78125 -3.21875 C 31.644531 -2.207031 32.265625 -1.210938 32.640625 -0.234375 C 33.003906 0.742188 33.097656 1.734375 32.921875 2.734375 Z M 25.8125 5.03125 C 26.15625 4.738281 26.46875 4.457031 26.75 4.1875 C 27.03125 3.925781 27.265625 3.675781 27.453125 3.4375 C 27.847656 3 28.085938 2.5625 28.171875 2.125 C 28.253906 1.78125 28.222656 1.394531 28.078125 0.96875 C 27.984375 0.769531 27.867188 0.5625 27.734375 0.34375 C 27.597656 0.132812 27.421875 -0.09375 27.203125 -0.34375 L 22.5 -5.84375 C 22.289062 -6.082031 22.082031 -6.289062 21.875 -6.46875 C 21.675781 -6.644531 21.492188 -6.789062 21.328125 -6.90625 C 20.929688 -7.101562 20.554688 -7.1875 20.203125 -7.15625 C 19.984375 -7.144531 19.757812 -7.09375 19.53125 -7 C 19.300781 -6.90625 19.054688 -6.785156 18.796875 -6.640625 C 18.546875 -6.472656 18.265625 -6.273438 17.953125 -6.046875 C 17.640625 -5.828125 17.3125 -5.570312 16.96875 -5.28125 L 11.5 -0.59375 C 11.164062 -0.300781 10.863281 -0.0195312 10.59375 0.25 C 10.320312 0.53125 10.082031 0.785156 9.875 1.015625 C 9.707031 1.234375 9.5625 1.453125 9.4375 1.671875 C 9.3125 1.890625 9.226562 2.097656 9.1875 2.296875 C 9.0625 2.671875 9.085938 3.054688 9.265625 3.453125 C 9.398438 3.816406 9.6875 4.253906 10.125 4.765625 L 14.828125 10.265625 C 15.273438 10.773438 15.671875 11.128906 16.015625 11.328125 C 16.378906 11.554688 16.757812 11.640625 17.15625 11.578125 C 17.539062 11.566406 18 11.40625 18.53125 11.09375 C 18.800781 10.9375 19.085938 10.738281 19.390625 10.5 C 19.691406 10.269531 20.007812 10.007812 20.34375 9.71875 Z M 25.8125 5.03125 "/></g></g></g><g fill="#ffffff" fill-opacity="1"><g transform="translate(317.035494, 127.010606)"><g><path d="M 28.59375 7.328125 L 13.09375 24.4375 C 12.882812 24.6875 12.675781 24.820312 12.46875 24.84375 C 12.382812 24.863281 12.269531 24.859375 12.125 24.828125 C 11.988281 24.796875 11.863281 24.671875 11.75 24.453125 L 10.3125 21.46875 C 10.125 21.082031 10.203125 20.710938 10.546875 20.359375 L 24.421875 5.15625 C 24.460938 5.125 24.484375 5.109375 24.484375 5.109375 L 24.421875 5 C 24.421875 5 24.410156 4.992188 24.390625 4.984375 C 24.378906 4.984375 24.351562 4.976562 24.3125 4.96875 L 13.578125 5.75 L 15.25 9.203125 C 15.4375 9.585938 15.378906 9.945312 15.078125 10.28125 L 13.09375 12.46875 C 12.820312 12.71875 12.53125 12.8125 12.21875 12.75 C 11.894531 12.738281 11.648438 12.5625 11.484375 12.21875 L 8.546875 6.125 L 3.8125 6.46875 C 3.34375 6.507812 3.019531 6.34375 2.84375 5.96875 L 1.359375 2.921875 C 1.253906 2.691406 1.234375 2.507812 1.296875 2.375 C 1.359375 2.238281 1.421875 2.144531 1.484375 2.09375 C 1.628906 1.957031 1.863281 1.867188 2.1875 1.828125 L 25.203125 0.296875 C 26.367188 0.191406 27.25 0.269531 27.84375 0.53125 C 27.894531 0.570312 27.96875 0.613281 28.0625 0.65625 C 28.15625 0.707031 28.234375 0.757812 28.296875 0.8125 C 28.960938 1.1875 29.472656 1.738281 29.828125 2.46875 C 30.191406 3.226562 30.289062 4.023438 30.125 4.859375 C 29.957031 5.691406 29.566406 6.390625 28.953125 6.953125 C 28.910156 7.023438 28.859375 7.09375 28.796875 7.15625 C 28.734375 7.21875 28.664062 7.273438 28.59375 7.328125 Z M 28.59375 7.328125 "/></g></g></g><g clip-path="url(#bec3b81843)"><g clip-path="url(#f730d241b0)"><path fill="#ffffff" d="M 320.738281 176.316406 L 344.246094 176.316406 L 344.246094 198.683594 L 320.738281 198.683594 Z M 320.738281 176.316406 " fill-opacity="1" fill-rule="nonzero"/></g></g></svg>