<svg width="28" height="27" viewBox="0 0 28 27" fill="none" xmlns="http://www.w3.org/2000/svg">
<ellipse cx="14.3789" cy="13.3043" rx="13.6211" ry="13.3043" fill="#393939"/>
<path d="M14.062 10.9654C13.5994 10.9654 13.1471 11.1026 12.7624 11.3597C12.3777 11.6167 12.0779 11.982 11.9009 12.4095C11.7238 12.8369 11.6775 13.3072 11.7678 13.761C11.858 14.2148 12.0808 14.6316 12.408 14.9587C12.7351 15.2859 13.1519 15.5087 13.6057 15.5989C14.0594 15.6892 14.5298 15.6429 14.9572 15.4658C15.3847 15.2888 15.75 14.9889 16.007 14.6043C16.2641 14.2196 16.4013 13.7673 16.4013 13.3047C16.4006 12.6844 16.154 12.0898 15.7154 11.6513C15.2769 11.2127 14.6822 10.9661 14.062 10.9654ZM14.062 14.8641C13.7536 14.8641 13.4521 14.7727 13.1956 14.6013C12.9392 14.43 12.7393 14.1864 12.6213 13.9014C12.5032 13.6165 12.4723 13.3029 12.5325 13.0004C12.5927 12.6979 12.7412 12.42 12.9593 12.2019C13.1774 11.9838 13.4553 11.8353 13.7578 11.7751C14.0603 11.715 14.3739 11.7458 14.6588 11.8639C14.9438 11.9819 15.1873 12.1818 15.3587 12.4382C15.5301 12.6947 15.6215 12.9962 15.6215 13.3047C15.6215 13.7183 15.4572 14.1149 15.1648 14.4074C14.8723 14.6998 14.4756 14.8641 14.062 14.8641ZM16.4013 8.23633H11.7228C10.9992 8.2371 10.3055 8.52488 9.7939 9.03652C9.28227 9.54815 8.99449 10.2419 8.99371 10.9654V15.6439C8.99449 16.3674 9.28227 17.0611 9.7939 17.5728C10.3055 18.0844 10.9992 18.3722 11.7228 18.373H16.4013C17.1248 18.3722 17.8185 18.0844 18.3302 17.5728C18.8418 17.0611 19.1296 16.3674 19.1304 15.6439V10.9654C19.1296 10.2419 18.8418 9.54815 18.3302 9.03652C17.8185 8.52488 17.1248 8.2371 16.4013 8.23633ZM18.3506 15.6439C18.3506 16.1609 18.1452 16.6567 17.7797 17.0223C17.4141 17.3879 16.9183 17.5932 16.4013 17.5932H11.7228C11.2058 17.5932 10.71 17.3879 10.3444 17.0223C9.97883 16.6567 9.77346 16.1609 9.77346 15.6439V10.9654C9.77346 10.4484 9.97883 9.9526 10.3444 9.58702C10.71 9.22145 11.2058 9.01607 11.7228 9.01607H16.4013C16.9183 9.01607 17.4141 9.22145 17.7797 9.58702C18.1452 9.9526 18.3506 10.4484 18.3506 10.9654V15.6439ZM17.181 10.7705C17.181 10.8862 17.1467 10.9992 17.0824 11.0954C17.0182 11.1916 16.9269 11.2665 16.82 11.3108C16.7131 11.355 16.5955 11.3666 16.4821 11.3441C16.3687 11.3215 16.2645 11.2658 16.1827 11.184C16.1009 11.1022 16.0452 10.998 16.0226 10.8846C16.0001 10.7711 16.0116 10.6536 16.0559 10.5467C16.1002 10.4398 16.1751 10.3485 16.2713 10.2842C16.3675 10.22 16.4805 10.1857 16.5962 10.1857C16.7513 10.1857 16.9 10.2473 17.0097 10.357C17.1194 10.4666 17.181 10.6154 17.181 10.7705Z" fill="white"/>
</svg>
