<svg width="1280" height="388" viewBox="0 0 1280 388" fill="none" xmlns="http://www.w3.org/2000/svg">
<path d="M16.7261 0H5C2.23858 0 0 2.23857 0 4.99999V383C0 385.761 2.23854 388 4.99997 388H1294C1296.76 388 1299 385.761 1299 383V24.4925C1299 21.5011 1295.99 19.4494 1293.2 20.5459C1293.02 20.6201 1292.82 20.6808 1292.62 20.7274L1285.89 22.3196C1285.51 22.4087 1285.13 22.4537 1284.74 22.4537H1277.72H1273.16H1268.6H1260.48C1260.15 22.4537 1259.83 22.4221 1259.51 22.3594L1256.25 21.7165C1255.71 21.6099 1255.15 21.5936 1254.6 21.6681L1248.84 22.4537H1239.73C1239.39 22.4537 1239.05 22.4184 1238.71 22.3484L1230.6 20.6574L1224.53 19.1605L1218.81 18.316C1218.57 18.2803 1218.32 18.2623 1218.08 18.2623H1209.83H1193.62L1186.5 17.4205C1186.18 17.3831 1185.86 17.376 1185.54 17.3995L1174.34 18.227C1174.02 18.2505 1173.7 18.2435 1173.39 18.206L1161.86 16.8434C1161.42 16.7917 1160.98 16.7981 1160.54 16.8626L1151.43 18.2087C1151.19 18.2444 1150.94 18.2623 1150.7 18.2623H1132.32H1119.56C1118.95 18.2623 1118.35 18.1506 1117.78 17.9326L1110.03 14.9691L1104.98 13.6135C1104.63 13.5196 1104.27 13.4639 1103.91 13.4475L1091.87 12.9C1091.48 12.8824 1091.09 12.9101 1090.71 12.9827L1078.06 15.3839C1077.43 15.5054 1076.77 15.5008 1076.13 15.3703L1063.92 12.8735L1054.3 9.87963L1046.64 7.33408C1046.34 7.23504 1046.03 7.16428 1045.72 7.12275L1030.49 5.08951H1016.3L995.066 3.04685C994.7 3.01161 994.331 3.01693 993.966 3.0627L977.796 5.08951L963.974 7.1315C963.732 7.16724 963.488 7.18518 963.243 7.18518H949.932H937.655C937.396 7.18518 937.138 7.20527 936.882 7.24525L920.041 9.87963L909.532 12.7023C909.109 12.8159 908.673 12.8735 908.235 12.8735H895.216H881.419C881.16 12.8735 880.902 12.8935 880.646 12.9335L864.189 15.5078C863.933 15.5478 863.675 15.5679 863.416 15.5679H846.796C846.316 15.5679 845.839 15.4989 845.379 15.363L838.032 13.1921C837.322 12.9823 836.574 12.9328 835.842 13.0472L819.728 15.5679L805.435 17.8978C805.169 17.9412 804.9 17.963 804.631 17.963H794.737C794.176 17.963 793.619 18.0575 793.089 18.2425L783.386 21.6307C782.96 21.7795 782.515 21.8699 782.065 21.8995L764.505 23.0525H740.693L726.394 21.887C726.133 21.8657 725.87 21.865 725.608 21.8849L711.212 22.9826C710.606 23.0288 709.997 22.9643 709.415 22.7922L693.764 18.1679C693.304 18.032 692.827 17.963 692.347 17.963H673.363C672.992 17.963 672.622 18.0042 672.261 18.0859L656.735 21.5939C655.975 21.7656 655.186 21.7574 654.43 21.5701L640.884 18.2131C640.218 18.0481 639.525 18.0219 638.848 18.1361L626.8 20.1703C626.068 20.2939 625.318 20.2529 624.603 20.0503L614.597 17.212C613.574 16.9219 612.485 16.9653 611.489 17.3361L600.187 21.5411C599.629 21.7487 599.039 21.8549 598.444 21.8549H588.704H574.519H557.8L546.658 20.4237C546.319 20.38 545.975 20.3714 545.634 20.398L527.683 21.7937C527.161 21.8343 526.636 21.7928 526.128 21.6706L511.745 18.2179C511.046 18.0499 510.318 18.035 509.612 18.174L490.925 21.8549L471.166 23.0525H459.559C458.861 23.0525 458.171 23.1985 457.533 23.4813L447.309 28.0125C446.671 28.2953 445.981 28.4414 445.283 28.4414H427.596L406.749 26.6815C406.462 26.6572 406.173 26.6578 405.886 26.6833L386.928 28.3637C386.349 28.4151 385.765 28.3649 385.202 28.2153L366.262 23.1789C365.946 23.0948 365.623 23.042 365.296 23.0211L347.042 21.8549H336.402L322.31 23.0036C321.912 23.0361 321.518 23.1162 321.139 23.2423L306.266 28.1861C305.757 28.3552 305.225 28.4414 304.689 28.4414H285.233H269.278C268.772 28.4414 268.268 28.3645 267.785 28.2133L251.844 23.2262C251.475 23.1108 251.094 23.0385 250.708 23.0109L235.565 21.9262C234.908 21.8792 234.267 21.7027 233.678 21.407L225.046 17.0714C224.642 16.8684 224.212 16.7211 223.768 16.6337L205.157 12.9677C204.839 12.905 204.515 12.8735 204.191 12.8735H187.95C186.965 12.8735 186.002 12.5826 185.182 12.0373L179.592 8.32073C178.771 7.77545 177.808 7.48457 176.824 7.48457H169.938C169.458 7.48457 168.981 7.55358 168.521 7.68949L152.079 12.5474C151.353 12.762 150.588 12.8088 149.841 12.6843L131.217 9.58025L110.866 7.52696C110.586 7.49875 110.309 7.44701 110.038 7.3723L103.259 5.50275C102.984 5.42698 102.703 5.37484 102.42 5.34691L94.2289 4.54021C93.8949 4.50732 93.5584 4.50814 93.2245 4.54266L73.4614 6.58642H50.1564H43.0636H34.4436C33.7796 6.58642 33.1222 6.45416 32.5099 6.19737L18.6598 0.389052C18.0474 0.132257 17.3901 0 16.7261 0Z" fill="#202020"/>
</svg>
