<svg width="46" height="37" viewBox="0 0 46 37" fill="none" xmlns="http://www.w3.org/2000/svg">
<path fill-rule="evenodd" clip-rule="evenodd" d="M7.66614 7.70833C6.60759 7.70833 5.74947 8.39856 5.74947 9.25V9.94472L22.0472 18.2749C22.3329 18.418 22.6628 18.4938 22.9995 18.4938C23.3361 18.4938 23.666 18.418 23.9518 18.2749C23.9532 18.2742 23.9546 18.2734 23.956 18.2727L40.2495 9.94472V9.25C40.2495 8.39856 39.3914 7.70833 38.3328 7.70833H7.66614ZM44.0828 10.7657V9.25C44.0828 6.69568 41.5084 4.625 38.3328 4.625H7.66614C4.4905 4.625 1.91614 6.69568 1.91614 9.25V10.7657C1.91581 10.782 1.91581 10.7984 1.91614 10.8148V27.75C1.91614 30.3043 4.4905 32.375 7.66614 32.375H38.3328C41.5084 32.375 44.0828 30.3043 44.0828 27.75V10.8147C44.0831 10.7984 44.0831 10.7821 44.0828 10.7657ZM40.2495 13.5979L25.9913 20.8856C25.0945 21.3375 24.0577 21.5772 22.9995 21.5772C21.9413 21.5772 20.9044 21.3375 20.0077 20.8856L19.9973 20.8804L5.74947 13.5979V27.75C5.74947 28.6014 6.60759 29.2917 7.66614 29.2917H38.3328C39.3914 29.2917 40.2495 28.6014 40.2495 27.75V13.5979Z" fill="#DAE4F2"/>
</svg>
