<svg width="43" height="42" viewBox="0 0 43 42" fill="none" xmlns="http://www.w3.org/2000/svg">
<path fill-rule="evenodd" clip-rule="evenodd" d="M13.9423 5.67293C13.6127 5.39603 13.1912 5.24566 12.7564 5.24984L12.7388 5.24993H7.36492C7.11638 5.25023 6.87062 5.30104 6.64327 5.39913C6.41574 5.49729 6.21163 5.64066 6.04394 5.82009C5.87624 5.99953 5.74863 6.2111 5.66924 6.44135C5.5911 6.66795 5.56135 6.90774 5.58177 7.14593C6.1421 12.2762 7.93052 17.2057 10.8025 21.536L10.811 21.5489C13.4207 25.5603 16.9027 28.9613 21.0097 31.5104L21.0237 31.5191C25.4362 34.3141 30.4578 36.0604 35.6857 36.6182C35.9298 36.6379 36.1754 36.6085 36.4074 36.5319C36.6438 36.4538 36.8608 36.3284 37.0446 36.1637C37.2285 35.9989 37.3751 35.7985 37.475 35.5752C37.575 35.3519 37.6261 35.1107 37.6251 34.867L37.6251 34.8599V29.6099C37.6251 29.5955 37.6252 29.581 37.6256 29.5665C37.6365 29.1374 37.4856 28.7193 37.2015 28.3918C36.9188 28.0659 36.5238 27.8523 36.0912 27.7912C34.2404 27.552 32.4232 27.1095 30.6741 26.472L30.6701 26.4705C30.3494 26.3528 30.0009 26.3273 29.6659 26.3971C29.3323 26.4666 29.0259 26.6277 28.7828 26.8614L26.5115 29.0799C25.9412 29.6369 25.0602 29.7531 24.359 29.3637C19.5932 26.7168 15.6471 22.8625 12.9372 18.2074C12.5385 17.5226 12.6574 16.662 13.2277 16.105L15.4989 13.8866C15.7383 13.6492 15.9032 13.3499 15.9744 13.024C16.0458 12.6967 16.0197 12.3564 15.8992 12.0432L15.8977 12.0392C15.245 10.3309 14.792 8.55599 14.5472 6.74833C14.485 6.33039 14.2703 5.9484 13.9423 5.67293ZM12.7309 1.74993C14.0317 1.73971 15.2923 2.19065 16.2788 3.01928C17.2677 3.84998 17.9136 5.00356 18.0962 6.26501L18.0984 6.2811C18.3075 7.82972 18.6953 9.35028 19.2542 10.8138C19.6151 11.7528 19.6931 12.7731 19.4789 13.754C19.2646 14.7356 18.7666 15.6367 18.044 16.3504L18.037 16.3574L16.7522 17.6123C18.8589 20.8404 21.6634 23.5797 24.9684 25.6374L26.2603 24.3756C26.991 23.6698 27.9135 23.1834 28.9185 22.9741C29.9228 22.7649 30.9674 22.841 31.9287 23.1935C33.4271 23.7395 34.9838 24.1182 36.5693 24.3225L36.5853 24.3246C37.8908 24.5045 39.0831 25.1467 39.9354 26.1293C40.7824 27.1057 41.2349 28.3505 41.2084 29.6295V34.8564C41.2109 35.5863 41.0576 36.3086 40.7583 36.9774C40.4584 37.6472 40.0186 38.2485 39.4671 38.7427C38.9156 39.2369 38.2644 39.6132 37.5554 39.8474C36.8464 40.0816 36.0951 40.1686 35.3496 40.1028C35.3389 40.1019 35.3281 40.1008 35.3174 40.0997C29.5282 39.4853 23.9673 37.5537 19.0809 34.4601C14.5351 31.6373 10.6807 27.8725 7.79081 23.4324C4.61236 18.6379 2.63429 13.1797 2.01675 7.49972L2.014 7.47243C1.94684 6.74653 2.03517 6.01492 2.27335 5.32419C2.51153 4.63346 2.89435 3.99874 3.39743 3.46043C3.90052 2.92213 4.51285 2.49204 5.19544 2.19755C5.87803 1.90305 6.61592 1.75061 7.36213 1.74993L12.7309 1.74993Z" fill="#DAE4F2"/>
</svg>
