<svg width="161" height="42" viewBox="0 0 161 42" fill="none" xmlns="http://www.w3.org/2000/svg">
<ellipse cx="21.5" cy="21" rx="21.5" ry="21" fill="#393939"/>
<path d="M23.75 16.25C23.75 16.0511 23.829 15.8603 23.9697 15.7197C24.1103 15.579 24.3011 15.5 24.5 15.5H30.5C30.6989 15.5 30.8897 15.579 31.0303 15.7197C31.171 15.8603 31.25 16.0511 31.25 16.25C31.25 16.4489 31.171 16.6397 31.0303 16.7803C30.8897 16.921 30.6989 17 30.5 17H24.5C24.3011 17 24.1103 16.921 23.9697 16.7803C23.829 16.6397 23.75 16.4489 23.75 16.25ZM21.5 23.5625C21.5 24.6068 21.0852 25.6083 20.3467 26.3467C19.6083 27.0852 18.6068 27.5 17.5625 27.5H11.75C11.5511 27.5 11.3603 27.421 11.2197 27.2803C11.079 27.1397 11 26.9489 11 26.75V14.75C11 14.5511 11.079 14.3603 11.2197 14.2197C11.3603 14.079 11.5511 14 11.75 14H17.1875C17.9048 14.0008 18.6052 14.2181 19.197 14.6234C19.7888 15.0288 20.2444 15.6034 20.5043 16.272C20.7641 16.9406 20.8161 17.6721 20.6533 18.3707C20.4906 19.0693 20.1207 19.7025 19.5922 20.1875C20.1743 20.5377 20.6559 21.0325 20.9903 21.6239C21.3246 22.2153 21.5002 22.8832 21.5 23.5625ZM12.5 19.625H17.1875C17.7345 19.625 18.2591 19.4077 18.6459 19.0209C19.0327 18.6341 19.25 18.1095 19.25 17.5625C19.25 17.0155 19.0327 16.4909 18.6459 16.1041C18.2591 15.7173 17.7345 15.5 17.1875 15.5H12.5V19.625ZM20 23.5625C20 23.2424 19.937 22.9254 19.8145 22.6297C19.692 22.334 19.5124 22.0653 19.2861 21.8389C19.0597 21.6126 18.791 21.433 18.4953 21.3105C18.1996 21.188 17.8826 21.125 17.5625 21.125H12.5V26H17.5625C17.8826 26 18.1996 25.937 18.4953 25.8145C18.791 25.692 19.0597 25.5124 19.2861 25.2861C19.5124 25.0597 19.692 24.791 19.8145 24.4953C19.937 24.1996 20 23.8826 20 23.5625ZM32 23C32 23.1989 31.921 23.3897 31.7803 23.5303C31.6397 23.671 31.4489 23.75 31.25 23.75H24.5938C24.7349 24.2973 25.0278 24.7935 25.4387 25.1816C25.8496 25.5696 26.3618 25.8338 26.9162 25.9435C27.4706 26.0532 28.0448 26.0041 28.5725 25.8018C29.1002 25.5995 29.5601 25.2522 29.8991 24.8C29.9582 24.7212 30.0323 24.6548 30.1171 24.6047C30.2019 24.5545 30.2958 24.5216 30.3933 24.5077C30.4909 24.4938 30.5902 24.4993 30.6856 24.5238C30.7811 24.5483 30.8707 24.5913 30.9495 24.6505C31.0283 24.7096 31.0947 24.7837 31.1449 24.8685C31.195 24.9533 31.228 25.0472 31.2419 25.1447C31.2557 25.2423 31.2503 25.3416 31.2258 25.437C31.2013 25.5325 31.1582 25.6221 31.0991 25.7009C30.4577 26.5555 29.5332 27.154 28.4909 27.3892C27.4487 27.6245 26.3567 27.4813 25.4104 26.9851C24.4641 26.489 23.7252 25.6723 23.326 24.6812C22.9267 23.6901 22.8931 22.5893 23.2312 21.5758C23.5693 20.5622 24.257 19.702 25.1713 19.1491C26.0856 18.5962 27.1668 18.3866 28.2214 18.5579C29.2761 18.7292 30.2354 19.2702 30.9277 20.084C31.62 20.8979 32.0001 21.9315 32 23ZM30.4062 22.25C30.241 21.6047 29.8657 21.0327 29.3395 20.6243C28.8133 20.2158 28.1661 19.9941 27.5 19.9941C26.8339 19.9941 26.1867 20.2158 25.6605 20.6243C25.1343 21.0327 24.759 21.6047 24.5938 22.25H30.4062Z" fill="white"/>
<ellipse cx="139.5" cy="21" rx="21.5" ry="21" fill="#393939"/>
<path d="M139 17.3077C138.27 17.3077 137.556 17.5242 136.949 17.93C136.341 18.3357 135.868 18.9123 135.589 19.587C135.309 20.2617 135.236 21.0041 135.379 21.7203C135.521 22.4366 135.873 23.0945 136.389 23.6109C136.906 24.1272 137.563 24.4789 138.28 24.6214C138.996 24.7638 139.738 24.6907 140.413 24.4112C141.088 24.1318 141.664 23.6585 142.07 23.0513C142.476 22.4441 142.692 21.7303 142.692 21C142.691 20.0211 142.302 19.0825 141.61 18.3903C140.918 17.698 139.979 17.3087 139 17.3077ZM139 23.4615C138.513 23.4615 138.037 23.3172 137.632 23.0467C137.228 22.7762 136.912 22.3918 136.726 21.942C136.54 21.4922 136.491 20.9973 136.586 20.5198C136.681 20.0423 136.915 19.6037 137.259 19.2594C137.604 18.9152 138.042 18.6807 138.52 18.5858C138.997 18.4908 139.492 18.5395 139.942 18.7258C140.392 18.9121 140.776 19.2276 141.047 19.6324C141.317 20.0372 141.462 20.5132 141.462 21C141.462 21.6528 141.202 22.2789 140.741 22.7406C140.279 23.2022 139.653 23.4615 139 23.4615ZM142.692 13H135.308C134.166 13.0012 133.071 13.4555 132.263 14.263C131.455 15.0706 131.001 16.1656 131 17.3077V24.6923C131.001 25.8344 131.455 26.9294 132.263 27.737C133.071 28.5445 134.166 28.9988 135.308 29H142.692C143.834 28.9988 144.929 28.5445 145.737 27.737C146.545 26.9294 146.999 25.8344 147 24.6923V17.3077C146.999 16.1656 146.545 15.0706 145.737 14.263C144.929 13.4555 143.834 13.0012 142.692 13ZM145.769 24.6923C145.769 25.5084 145.445 26.291 144.868 26.868C144.291 27.4451 143.508 27.7692 142.692 27.7692H135.308C134.492 27.7692 133.709 27.4451 133.132 26.868C132.555 26.291 132.231 25.5084 132.231 24.6923V17.3077C132.231 16.4916 132.555 15.709 133.132 15.132C133.709 14.5549 134.492 14.2308 135.308 14.2308H142.692C143.508 14.2308 144.291 14.5549 144.868 15.132C145.445 15.709 145.769 16.4916 145.769 17.3077V24.6923ZM143.923 17C143.923 17.1826 143.869 17.361 143.768 17.5128C143.666 17.6646 143.522 17.7829 143.353 17.8528C143.185 17.9227 142.999 17.941 142.82 17.9053C142.641 17.8697 142.476 17.7818 142.347 17.6527C142.218 17.5236 142.13 17.3591 142.095 17.1801C142.059 17.001 142.077 16.8154 142.147 16.6468C142.217 16.4781 142.335 16.3339 142.487 16.2325C142.639 16.1311 142.817 16.0769 143 16.0769C143.245 16.0769 143.48 16.1742 143.653 16.3473C143.826 16.5204 143.923 16.7552 143.923 17Z" fill="white"/>
<ellipse cx="80.5" cy="21" rx="21.5" ry="21" fill="#393939"/>
<path d="M75.6129 18.2615H72.2697V28.9229H75.6129V18.2615Z" fill="white"/>
<path d="M84.6567 18.0305C84.5335 18.0151 84.4025 18.0074 84.2716 17.9997C82.3996 17.9226 81.3443 19.0319 80.9745 19.5095C80.8744 19.6405 80.8281 19.7175 80.8281 19.7175V18.2924H77.6312V28.9539H80.8281H80.9745C80.9745 27.8677 80.9745 26.7892 80.9745 25.703C80.9745 25.1176 80.9745 24.5321 80.9745 23.9467C80.9745 23.2225 80.9206 22.4522 81.2826 21.7897C81.5908 21.2351 82.1454 20.9578 82.7694 20.9578C84.6182 20.9578 84.6567 22.6294 84.6567 22.7835C84.6567 22.7912 84.6567 22.7989 84.6567 22.7989V29.0001H88V22.0439C88 19.6636 86.7906 18.2616 84.6567 18.0305Z" fill="white"/>
<path d="M73.9413 16.8825C75.0134 16.8825 75.8825 16.0134 75.8825 14.9412C75.8825 13.8691 75.0134 13 73.9413 13C72.8691 13 72 13.8691 72 14.9412C72 16.0134 72.8691 16.8825 73.9413 16.8825Z" fill="white"/>
</svg>
