<svg width="43" height="42" viewBox="0 0 43 42" fill="none" xmlns="http://www.w3.org/2000/svg">
<ellipse cx="21.5" cy="21" rx="21.5" ry="21" fill="#393939"/>
<path d="M23.75 16.25C23.75 16.0511 23.829 15.8603 23.9697 15.7197C24.1103 15.579 24.3011 15.5 24.5 15.5H30.5C30.6989 15.5 30.8897 15.579 31.0303 15.7197C31.171 15.8603 31.25 16.0511 31.25 16.25C31.25 16.4489 31.171 16.6397 31.0303 16.7803C30.8897 16.921 30.6989 17 30.5 17H24.5C24.3011 17 24.1103 16.921 23.9697 16.7803C23.829 16.6397 23.75 16.4489 23.75 16.25ZM21.5 23.5625C21.5 24.6068 21.0852 25.6083 20.3467 26.3467C19.6083 27.0852 18.6068 27.5 17.5625 27.5H11.75C11.5511 27.5 11.3603 27.421 11.2197 27.2803C11.079 27.1397 11 26.9489 11 26.75V14.75C11 14.5511 11.079 14.3603 11.2197 14.2197C11.3603 14.079 11.5511 14 11.75 14H17.1875C17.9048 14.0008 18.6052 14.2181 19.197 14.6234C19.7888 15.0288 20.2444 15.6034 20.5043 16.272C20.7641 16.9406 20.8161 17.6721 20.6533 18.3707C20.4906 19.0693 20.1207 19.7025 19.5922 20.1875C20.1743 20.5377 20.6559 21.0325 20.9903 21.6239C21.3246 22.2153 21.5002 22.8832 21.5 23.5625ZM12.5 19.625H17.1875C17.7345 19.625 18.2591 19.4077 18.6459 19.0209C19.0327 18.6341 19.25 18.1095 19.25 17.5625C19.25 17.0155 19.0327 16.4909 18.6459 16.1041C18.2591 15.7173 17.7345 15.5 17.1875 15.5H12.5V19.625ZM20 23.5625C20 23.2424 19.937 22.9254 19.8145 22.6297C19.692 22.334 19.5124 22.0653 19.2861 21.8389C19.0597 21.6126 18.791 21.433 18.4953 21.3105C18.1996 21.188 17.8826 21.125 17.5625 21.125H12.5V26H17.5625C17.8826 26 18.1996 25.937 18.4953 25.8145C18.791 25.692 19.0597 25.5124 19.2861 25.2861C19.5124 25.0597 19.692 24.791 19.8145 24.4953C19.937 24.1996 20 23.8826 20 23.5625ZM32 23C32 23.1989 31.921 23.3897 31.7803 23.5303C31.6397 23.671 31.4489 23.75 31.25 23.75H24.5938C24.7349 24.2973 25.0278 24.7935 25.4387 25.1816C25.8496 25.5696 26.3618 25.8338 26.9162 25.9435C27.4706 26.0532 28.0448 26.0041 28.5725 25.8018C29.1002 25.5995 29.5601 25.2522 29.8991 24.8C29.9582 24.7212 30.0323 24.6548 30.1171 24.6047C30.2019 24.5545 30.2958 24.5216 30.3933 24.5077C30.4909 24.4938 30.5902 24.4993 30.6856 24.5238C30.7811 24.5483 30.8707 24.5913 30.9495 24.6505C31.0283 24.7096 31.0947 24.7837 31.1449 24.8685C31.195 24.9533 31.228 25.0472 31.2419 25.1447C31.2557 25.2423 31.2503 25.3416 31.2258 25.437C31.2013 25.5325 31.1582 25.6221 31.0991 25.7009C30.4577 26.5555 29.5332 27.154 28.4909 27.3892C27.4487 27.6245 26.3567 27.4813 25.4104 26.9851C24.4641 26.489 23.7252 25.6723 23.326 24.6812C22.9267 23.6901 22.8931 22.5893 23.2312 21.5758C23.5693 20.5622 24.257 19.702 25.1713 19.1491C26.0856 18.5962 27.1668 18.3866 28.2214 18.5579C29.2761 18.7292 30.2354 19.2702 30.9277 20.084C31.62 20.8979 32.0001 21.9315 32 23ZM30.4062 22.25C30.241 21.6047 29.8657 21.0327 29.3395 20.6243C28.8133 20.2158 28.1661 19.9941 27.5 19.9941C26.8339 19.9941 26.1867 20.2158 25.6605 20.6243C25.1343 21.0327 24.759 21.6047 24.5938 22.25H30.4062Z" fill="white"/>
</svg>
