<svg width="43" height="42" viewBox="0 0 43 42" fill="none" xmlns="http://www.w3.org/2000/svg">
<ellipse cx="21.5" cy="21" rx="21.5" ry="21" fill="#393939"/>
<path d="M21 17.3077C20.2697 17.3077 19.5559 17.5242 18.9487 17.93C18.3415 18.3357 17.8682 18.9123 17.5888 19.587C17.3093 20.2617 17.2362 21.0041 17.3786 21.7203C17.5211 22.4366 17.8728 23.0945 18.3891 23.6109C18.9055 24.1272 19.5634 24.4789 20.2797 24.6214C20.9959 24.7638 21.7383 24.6907 22.413 24.4112C23.0877 24.1318 23.6643 23.6585 24.07 23.0513C24.4758 22.4441 24.6923 21.7303 24.6923 21C24.6913 20.0211 24.302 19.0825 23.6097 18.3903C22.9175 17.698 21.9789 17.3087 21 17.3077ZM21 23.4615C20.5132 23.4615 20.0372 23.3172 19.6324 23.0467C19.2276 22.7762 18.9121 22.3918 18.7258 21.942C18.5395 21.4922 18.4908 20.9973 18.5858 20.5198C18.6807 20.0423 18.9152 19.6037 19.2594 19.2594C19.6037 18.9152 20.0423 18.6807 20.5198 18.5858C20.9973 18.4908 21.4922 18.5395 21.942 18.7258C22.3918 18.9121 22.7762 19.2276 23.0467 19.6324C23.3172 20.0372 23.4615 20.5132 23.4615 21C23.4615 21.6528 23.2022 22.2789 22.7406 22.7406C22.2789 23.2022 21.6528 23.4615 21 23.4615ZM24.6923 13H17.3077C16.1656 13.0012 15.0706 13.4555 14.263 14.263C13.4555 15.0706 13.0012 16.1656 13 17.3077V24.6923C13.0012 25.8344 13.4555 26.9294 14.263 27.737C15.0706 28.5445 16.1656 28.9988 17.3077 29H24.6923C25.8344 28.9988 26.9294 28.5445 27.737 27.737C28.5445 26.9294 28.9988 25.8344 29 24.6923V17.3077C28.9988 16.1656 28.5445 15.0706 27.737 14.263C26.9294 13.4555 25.8344 13.0012 24.6923 13ZM27.7692 24.6923C27.7692 25.5084 27.4451 26.291 26.868 26.868C26.291 27.4451 25.5084 27.7692 24.6923 27.7692H17.3077C16.4916 27.7692 15.709 27.4451 15.132 26.868C14.5549 26.291 14.2308 25.5084 14.2308 24.6923V17.3077C14.2308 16.4916 14.5549 15.709 15.132 15.132C15.709 14.5549 16.4916 14.2308 17.3077 14.2308H24.6923C25.5084 14.2308 26.291 14.5549 26.868 15.132C27.4451 15.709 27.7692 16.4916 27.7692 17.3077V24.6923ZM25.9231 17C25.9231 17.1826 25.8689 17.361 25.7675 17.5128C25.6661 17.6646 25.5219 17.7829 25.3532 17.8528C25.1846 17.9227 24.999 17.941 24.8199 17.9053C24.6409 17.8697 24.4764 17.7818 24.3473 17.6527C24.2182 17.5236 24.1303 17.3591 24.0947 17.1801C24.059 17.001 24.0773 16.8154 24.1472 16.6468C24.2171 16.4781 24.3354 16.3339 24.4872 16.2325C24.639 16.1311 24.8174 16.0769 25 16.0769C25.2448 16.0769 25.4796 16.1742 25.6527 16.3473C25.8258 16.5204 25.9231 16.7552 25.9231 17Z" fill="white"/>
</svg>
