<svg width="43" height="42" viewBox="0 0 43 42" fill="none" xmlns="http://www.w3.org/2000/svg">
<ellipse cx="21.5" cy="21" rx="21.5" ry="21" fill="#393939"/>
<path d="M16.6129 18.2617H13.2697V28.9232H16.6129V18.2617Z" fill="white"/>
<path d="M25.6567 18.0307C25.5335 18.0153 25.4025 18.0076 25.2716 17.9999C23.3996 17.9229 22.3443 19.0322 21.9745 19.5098C21.8744 19.6407 21.8281 19.7178 21.8281 19.7178V18.2926H18.6312V28.9541H21.8281H21.9745C21.9745 27.8679 21.9745 26.7895 21.9745 25.7033C21.9745 25.1178 21.9745 24.5324 21.9745 23.9469C21.9745 23.2228 21.9206 22.4525 22.2826 21.79C22.5908 21.2353 23.1454 20.958 23.7694 20.958C25.6182 20.958 25.6567 22.6296 25.6567 22.7837C25.6567 22.7914 25.6567 22.7991 25.6567 22.7991V29.0003H29V22.0442C29 19.6638 27.7906 18.2618 25.6567 18.0307Z" fill="white"/>
<path d="M14.9413 16.8825C16.0134 16.8825 16.8825 16.0134 16.8825 14.9412C16.8825 13.8691 16.0134 13 14.9413 13C13.8691 13 13 13.8691 13 14.9412C13 16.0134 13.8691 16.8825 14.9413 16.8825Z" fill="white"/>
</svg>
