<svg width="1280" height="793" viewBox="0 0 1280 793" fill="none" xmlns="http://www.w3.org/2000/svg">
<path d="M16.1552 0H5C2.23858 0 0 2.23858 0 5.00001V643C0 645.761 2.23854 648 4.99997 648H1294C1296.76 648 1299 645.761 1299 643V37.3934C1299 34.4355 1295.71 32.6631 1293.24 34.2889C1293.03 34.4293 1292.8 34.5473 1292.56 34.641L1286.21 37.1507C1285.62 37.3815 1285 37.5 1284.37 37.5H1277.72H1273.16H1268.6H1260.79C1260.26 37.5 1259.73 37.4155 1259.23 37.2496L1256.75 36.4339C1255.89 36.15 1254.96 36.1066 1254.08 36.3083L1249.39 37.3752C1249.03 37.4581 1248.66 37.5 1248.28 37.5H1240.06C1239.5 37.5 1238.95 37.4059 1238.42 37.2218L1230.6 34.5L1224.87 32.1412C1224.64 32.0472 1224.4 31.9703 1224.16 31.9111L1219.04 30.6456C1218.64 30.5489 1218.24 30.5 1217.84 30.5H1209.83H1194.11C1193.78 30.5 1193.46 30.4683 1193.14 30.4054L1186.81 29.1551C1186.29 29.0523 1185.75 29.0331 1185.23 29.098L1174.66 30.402C1174.13 30.4669 1173.6 30.4477 1173.08 30.3449L1162.29 28.2149C1161.57 28.0733 1160.83 28.0907 1160.12 28.2658L1151.65 30.3544C1151.26 30.4511 1150.86 30.5 1150.46 30.5H1132.32H1120.1C1119.15 30.5 1118.21 30.2273 1117.41 29.7141L1110.34 25.1976C1110.13 25.0661 1109.91 24.9498 1109.69 24.8497L1105.25 22.8575C1104.72 22.621 1104.16 22.4776 1103.58 22.4339L1092.25 21.5734C1091.61 21.5249 1090.97 21.5995 1090.36 21.7931L1078.67 25.502C1077.65 25.8255 1076.55 25.8134 1075.54 25.4676L1064.28 21.6214C1064.04 21.5406 1063.81 21.4422 1063.59 21.327L1054.3 16.5L1046.82 12.3513C1046.4 12.1183 1045.95 11.947 1045.48 11.8426L1031.02 8.61972C1030.67 8.54015 1030.3 8.5 1029.94 8.5H1016.7C1016.43 8.5 1016.17 8.47883 1015.91 8.43669L995.428 5.14665C994.825 5.0497 994.208 5.0642 993.61 5.18943L977.796 8.5L964.201 11.8544C963.809 11.9511 963.407 12 963.003 12H949.932H937.908C937.482 12 937.057 12.0546 936.644 12.1624L920.443 16.3948C920.175 16.4648 919.913 16.557 919.661 16.6704L909.871 21.062C909.227 21.3507 908.53 21.5 907.825 21.5H895.216H881.672C881.246 21.5 880.821 21.5546 880.409 21.6624L864.426 25.8376C864.013 25.9454 863.589 26 863.162 26H847.239C846.472 26 845.715 25.8234 845.026 25.4838L838.625 22.3252C837.547 21.793 836.313 21.6673 835.149 21.9713L819.728 26L805.68 29.8244C805.252 29.9409 804.811 30 804.367 30H795.241C794.356 30 793.487 30.2349 792.722 30.6808L783.661 35.9648C783.056 36.3177 782.384 36.5395 781.688 36.6158L764.505 38.5H740.693L726.654 36.5888C726.221 36.5299 725.781 36.528 725.348 36.5832L711.789 38.3098C710.815 38.4338 709.826 38.2682 708.945 37.8336L694.116 30.5162C693.428 30.1766 692.671 30 691.904 30H673.717C673.114 30 672.516 30.1091 671.952 30.322L657.43 35.8019C656.241 36.2504 654.926 36.2296 653.752 35.7438L641.475 30.6627C640.438 30.2334 639.286 30.1657 638.206 30.4703L627.492 33.4914C626.329 33.8193 625.087 33.715 623.995 33.1977L615.486 29.1672C613.951 28.4396 612.15 28.542 610.707 29.4389L600.556 35.7469C599.763 36.2391 598.849 36.5 597.917 36.5H588.704H574.519H558.33C557.978 36.5 557.626 36.4627 557.281 36.3888L546.988 34.1803C546.432 34.061 545.859 34.0374 545.295 34.1107L528.189 36.332C527.341 36.4422 526.479 36.3328 525.685 36.0145L512.375 30.6783C511.282 30.2402 510.07 30.2017 508.952 30.5696L491.442 36.3298C491.098 36.4429 490.743 36.5184 490.383 36.5548L471.166 38.5H460.15C459.078 38.5 458.036 38.8439 457.175 39.4811L447.667 46.5189C446.806 47.1561 445.763 47.5 444.692 47.5H427.596L407.033 44.6009C406.558 44.534 406.077 44.5356 405.603 44.6058L387.488 47.2875C386.55 47.4263 385.592 47.2957 384.726 46.911L366.505 38.8188C366.029 38.6076 365.523 38.4719 365.006 38.4167L347.042 36.5H336.402L322.641 38.3733C322.026 38.457 321.432 38.6546 320.889 38.956L306.63 46.8716C305.888 47.2837 305.052 47.5 304.203 47.5H285.233H269.742C268.935 47.5 268.141 47.305 267.426 46.9316L252.101 38.9242C251.564 38.6437 250.98 38.4631 250.379 38.3912L236.048 36.6769C235.084 36.5615 234.173 36.1674 233.429 35.5429L225.174 28.6183C224.687 28.2098 224.127 27.898 223.523 27.6994L205.44 21.7504C204.936 21.5845 204.408 21.5 203.877 21.5H188.666C187.249 21.5 185.899 20.8989 184.95 19.8462L179.823 14.1538C178.875 13.1011 177.525 12.5 176.108 12.5H170.381C169.614 12.5 168.857 12.6766 168.168 13.0162L152.689 20.6547C151.586 21.199 150.321 21.3176 149.135 20.9877L131.217 16L111.102 12.6106C110.666 12.5372 110.242 12.4064 109.841 12.2216L103.459 9.28258C103.052 9.09505 102.622 8.96312 102.179 8.89036L94.5584 7.63682C94.0077 7.54625 93.4458 7.54849 92.8959 7.64347L73.8837 10.9271C73.6027 10.9756 73.318 11 73.0328 11H50.1564H43.0636H35.0144C33.9881 11 32.9867 10.6842 32.146 10.0954L19.0236 0.904591C18.183 0.315822 17.1815 0 16.1552 0Z" fill="#202020"/>
<path d="M1264.15 792.405L1275.28 792.409C1278.04 792.409 1280.28 790.172 1280.29 787.41L1280.49 149.41C1280.49 146.649 1278.25 144.409 1275.49 144.409L-11.7951 144.002C-14.5566 144.001 -16.7958 146.239 -16.7967 149L-16.9882 754.613C-16.9892 757.567 -13.7054 759.337 -11.2381 757.713C-11.025 757.573 -10.798 757.455 -10.5607 757.361L-4.21315 754.854C-3.62787 754.623 -3.00418 754.504 -2.3749 754.505L4.26218 754.507L8.81577 754.508L13.3695 754.509L21.1684 754.512C21.6999 754.512 22.228 754.597 22.7328 754.763L25.2035 755.578C26.0674 755.863 26.9926 755.907 27.8796 755.705L32.553 754.641C32.9178 754.558 33.2907 754.516 33.6648 754.516L41.8683 754.519C42.4289 754.519 42.9855 754.613 43.5148 754.798L51.3155 757.521L57.0427 759.882C57.2714 759.976 57.5069 760.053 57.7471 760.113L62.8667 761.379C63.259 761.476 63.6617 761.525 64.0659 761.526L72.0587 761.528L87.7601 761.533C88.0855 761.533 88.4102 761.565 88.7295 761.628L95.0518 762.88C95.5729 762.983 96.107 763.002 96.6342 762.938L107.186 761.637C107.713 761.573 108.247 761.592 108.768 761.695L119.54 763.828C120.258 763.97 120.998 763.953 121.709 763.777L130.159 761.692C130.552 761.596 130.955 761.547 131.359 761.547L149.471 761.553L161.67 761.556C162.624 761.557 163.559 761.83 164.363 762.345L171.422 766.862C171.628 766.993 171.843 767.11 172.066 767.21L176.498 769.203C177.026 769.44 177.591 769.584 178.168 769.628L189.483 770.492C190.122 770.54 190.765 770.466 191.376 770.272L203.047 766.569C204.068 766.245 205.166 766.257 206.179 766.604L217.417 770.452C217.654 770.533 217.884 770.632 218.106 770.748L227.384 775.577L234.845 779.728C235.265 779.961 235.716 780.133 236.185 780.238L250.624 783.465C250.982 783.544 251.347 783.585 251.713 783.585L264.929 783.589C265.195 783.589 265.461 783.61 265.723 783.653L286.17 786.949C286.774 787.046 287.391 787.032 287.99 786.906L303.782 783.601L317.359 780.252C317.751 780.155 318.154 780.106 318.558 780.106L331.611 780.11L343.617 780.114C344.044 780.114 344.469 780.06 344.882 779.952L361.061 775.725C361.329 775.655 361.591 775.562 361.844 775.449L371.619 771.062C372.263 770.773 372.962 770.623 373.668 770.623L386.258 770.627L399.781 770.632C400.208 770.632 400.634 770.577 401.047 770.469L417.006 766.3C417.419 766.192 417.845 766.137 418.272 766.138L434.169 766.143C434.938 766.143 435.695 766.32 436.384 766.661L442.769 769.818C443.849 770.352 445.085 770.478 446.25 770.174L461.647 766.151L475.675 762.332C476.104 762.215 476.546 762.156 476.991 762.156L486.099 762.159C486.985 762.159 487.856 761.924 488.621 761.478L497.667 756.199C498.273 755.846 498.946 755.624 499.643 755.547L516.801 753.669L540.581 753.676L554.6 755.592C555.034 755.651 555.473 755.653 555.907 755.598L569.443 753.876C570.418 753.752 571.409 753.918 572.29 754.354L587.092 761.674C587.78 762.014 588.538 762.191 589.307 762.192L607.464 762.197C608.068 762.198 608.666 762.088 609.231 761.875L623.729 756.402C624.919 755.953 626.236 755.974 627.411 756.462L639.662 761.543C640.7 761.974 641.853 762.042 642.935 761.737L653.627 758.722C654.791 758.394 656.035 758.498 657.128 759.017L665.614 763.046C667.151 763.775 668.953 763.673 670.398 762.775L680.53 756.475C681.323 755.982 682.238 755.721 683.172 755.721L692.369 755.724L706.536 755.729L722.701 755.734C723.054 755.734 723.406 755.771 723.751 755.846L734.027 758.057C734.584 758.176 735.157 758.2 735.722 758.127L752.8 755.912C753.65 755.802 754.513 755.911 755.308 756.231L768.591 761.568C769.685 762.008 770.899 762.047 772.018 761.678L789.501 755.926C789.845 755.812 790.201 755.737 790.561 755.7L809.752 753.761L820.75 753.765C821.822 753.765 822.866 753.421 823.728 752.783L833.22 745.752C834.082 745.114 835.126 744.769 836.198 744.77L853.268 744.775L873.801 747.68C874.276 747.748 874.758 747.746 875.233 747.676L893.319 745.001C894.258 744.862 895.217 744.993 896.084 745.379L914.274 753.475C914.75 753.687 915.256 753.823 915.774 753.878L933.712 755.801L944.337 755.804L958.079 753.935C958.695 753.852 959.289 753.654 959.833 753.352L974.071 745.443C974.814 745.03 975.65 744.814 976.5 744.814L995.443 744.82L1010.91 744.825C1011.72 744.825 1012.51 745.021 1013.23 745.395L1028.53 753.405C1029.06 753.687 1029.65 753.868 1030.25 753.94L1044.56 755.658C1045.52 755.774 1046.43 756.169 1047.18 756.795L1055.41 763.72C1055.9 764.129 1056.46 764.442 1057.07 764.641L1075.12 770.594C1075.62 770.761 1076.15 770.846 1076.68 770.846L1091.87 770.851C1093.29 770.851 1094.64 771.453 1095.59 772.508L1100.7 778.197C1101.65 779.252 1103 779.854 1104.42 779.855L1110.13 779.856C1110.9 779.857 1111.65 779.68 1112.34 779.34L1127.8 771.709C1128.9 771.164 1130.17 771.046 1131.36 771.377L1149.24 776.369L1169.33 779.764C1169.77 779.838 1170.19 779.969 1170.59 780.154L1176.96 783.094C1177.37 783.282 1177.8 783.415 1178.24 783.488L1185.85 784.743C1186.4 784.834 1186.96 784.832 1187.51 784.737L1206.5 781.46C1206.78 781.411 1207.07 781.387 1207.35 781.387L1230.2 781.394L1237.28 781.397L1245.32 781.399C1246.34 781.399 1247.34 781.716 1248.19 782.306L1261.28 791.498C1262.12 792.088 1263.13 792.405 1264.15 792.405Z" fill="#202020"/>
</svg>
