<svg width="43" height="42" viewBox="0 0 43 42" fill="none" xmlns="http://www.w3.org/2000/svg">
<path fill-rule="evenodd" clip-rule="evenodd" d="M13.9422 5.67318C13.6126 5.39628 13.1911 5.24591 12.7563 5.25008L12.7387 5.25017H7.3648C7.11626 5.25048 6.8705 5.30129 6.64315 5.39938C6.41562 5.49754 6.21151 5.6409 6.04382 5.82034C5.87612 5.99977 5.74851 6.21135 5.66912 6.44159C5.59098 6.66819 5.56123 6.90799 5.58165 7.14618C6.14198 12.2764 7.9304 17.2059 10.8024 21.5362L10.8109 21.5491C13.4206 25.5606 16.9026 28.9616 21.0096 31.5106L21.0235 31.5194C25.4361 34.3144 30.4577 36.0607 35.6856 36.6184C35.9296 36.6381 36.1753 36.6088 36.4073 36.5321C36.6436 36.4541 36.8607 36.3286 37.0445 36.1639C37.2284 35.9992 37.375 35.7987 37.4749 35.5755C37.5749 35.3522 37.626 35.111 37.625 34.8673L37.6249 34.8602V29.6102C37.6249 29.5957 37.6251 29.5812 37.6255 29.5668C37.6364 29.1376 37.4854 28.7196 37.2013 28.3921C36.9186 28.0662 36.5237 27.8526 36.0911 27.7914C34.2403 27.5523 32.4231 27.1097 30.674 26.4722L30.6699 26.4708C30.3493 26.353 30.0008 26.3276 29.6658 26.3973C29.3322 26.4668 29.0258 26.628 28.7827 26.8617L26.5114 29.0801C25.9411 29.6372 25.06 29.7533 24.3589 29.3639C19.593 26.717 15.647 22.8627 12.937 18.2077C12.5384 17.5229 12.6573 16.6623 13.2276 16.1052L15.4988 13.8869C15.7381 13.6494 15.9031 13.3501 15.9743 13.0242C16.0457 12.697 16.0196 12.3566 15.8991 12.0434L15.8976 12.0395C15.2449 10.3311 14.7919 8.55623 14.547 6.74858C14.4849 6.33063 14.2701 5.94864 13.9422 5.67318ZM12.7308 1.75017C14.0316 1.73996 15.2922 2.1909 16.2787 3.01953C17.2676 3.85022 17.9135 5.0038 18.0961 6.26525L18.0983 6.28134C18.3074 7.82996 18.6951 9.35052 19.2541 10.814C19.615 11.753 19.693 12.7733 19.4788 13.7542C19.2644 14.7359 18.7665 15.637 18.0439 16.3507L18.0369 16.3576L16.7521 17.6125C18.8588 20.8406 21.6633 23.5799 24.9683 25.6376L26.2601 24.3758C26.9908 23.67 27.9134 23.1837 28.9184 22.9743C29.9227 22.7651 30.9673 22.8413 31.9286 23.1938C33.427 23.7397 34.9837 24.1184 36.5692 24.3227L36.5852 24.3248C37.8907 24.5047 39.083 25.147 39.9353 26.1295C40.7823 27.1059 41.2348 28.3507 41.2083 29.6297V34.8567C41.2108 35.5865 41.0575 36.3089 40.7581 36.9776C40.4583 37.6474 40.0185 38.2487 39.467 38.743C38.9154 39.2372 38.2643 39.6135 37.5553 39.8477C36.8462 40.0819 36.0949 40.1689 35.3495 40.1031C35.3387 40.1021 35.328 40.1011 35.3172 40.0999C29.5281 39.4855 23.9671 37.5539 19.0807 34.4603C14.535 31.6375 10.6806 27.8727 7.79069 23.4327C4.61224 18.6381 2.63417 13.18 2.01663 7.49997L2.01388 7.47267C1.94672 6.74677 2.03504 6.01516 2.27322 5.32443C2.5114 4.6337 2.89423 3.99898 3.39731 3.46068C3.9004 2.92237 4.51273 2.49228 5.19532 2.19779C5.87791 1.9033 6.61579 1.75086 7.362 1.75017L12.7308 1.75017Z" fill="#DAE4F2"/>
</svg>
